<svg xmlns="http://www.w3.org/2000/svg" width="2000" height="1988" viewBox="0 0 2000 1988">
  <metadata><?xpacket begin="﻿" id="W5M0MpCehiHzreSzNTczkc9d"?>
<x:xmpmeta xmlns:x="adobe:ns:meta/" x:xmptk="Adobe XMP Core 5.6-c142 79.160924, 2017/07/13-01:06:39        ">
   <rdf:RDF xmlns:rdf="http://www.w3.org/1999/02/22-rdf-syntax-ns#">
      <rdf:Description rdf:about=""/>
   </rdf:RDF>
</x:xmpmeta>
                                                                                                    
                                                                                                    
                                                                                                    
                                                                                                    
                                                                                                    
                                                                                                    
                                                                                                    
                                                                                                    
                                                                                                    
                                                                                                    
                                                                                                    
                                                                                                    
                                                                                                    
                                                                                                    
                                                                                                    
                                                                                                    
                                                                                                    
                                                                                                    
                                                                                                    
                                                                                                    
                           
<?xpacket end="w"?></metadata>
<defs>
    <style>
      .cls-1 {
        stroke: #010202;
      }

      .cls-1, .cls-2 {
        stroke-width: 1.96px;
        fill-rule: evenodd;
      }

      .cls-2 {
        fill: #fff;
        stroke: #fff;
      }
    </style>
  </defs>
  <path id="Form_2" data-name="Form 2" class="cls-1" d="M1783,1993l-44-86-88-72s-50-25.5-102-32-134-15.5-170-52-82-105.5-84-122-14-64-14-64l94-26s72-17.5,82-26,76-31.5,86-42,46-41.5,58-52,19-25.5,22-30,5-20.5,6-27,23.5,14,26,28,14,40,13,44,10.5,2.5,16-3,21.5-22,22-31,14.5-55.5,13-67-12.5-65-19-74,78,46.5,81,57,31-57,13-101-41-57.5-51-68-23.5-18.5-31-22,34.5-17,57-28,44-26,49-36a61.8,61.8,0,0,0,6-18s11-4.5-17-2-98.5-9.5-110-17-31.5-17.5-48-32-16-19-16-19,5.5-131.5,8-144-9.5-130-13-150-38.5-151-42-158-47-122.5-53-131-44-93-52-103-58-121-65-130-35.5-27.5-38-30-13.5-3.5-25-4-12,2-23,7-61.5,62.5-75,79-114.5,189.5-124,206-37,126.5-39,148-6,87-6,93-3,7-3,7l-90,4v-5s8.5-59,4-70-18.5-139-39-175-75-139-94-164-63-103.5-74-112-17.5-12.5-22-15-24.5-6.5-32-3-13.5,5-24,14-34.5,44.5-39,50S575.5,353,571,365,472,584,465,609s-24.5,153-25,162,0.5,152.5,2,172,2,28,2,28-44.5,42-83,54-85.5,20.5-102,19-1,21-1,21,54.5,42,74,46,29,7,29,7-42,22.5-59,38-33.5,54.5-36,67-3,48.5-2,59,6,37,6,37l12-10s12.5-18,29-28,49.5-24.5,53-24-1,9-1,9-20.5,36-22,51,0.5,38.5,4,55,7,29,14,39,19,18,19,18l9,6,3-12s7.5-30.5,21-45,19-17,19-17-3,14,3,23,31.5,39,33,42,40.5,28,48,34,42,28,42,28,213,78.5,218,75-16,62.5-20,70-42.5,62.5-52,70-84,54-92,58-112,28-123,34-70.5,33.5-86,50-45.5,45-53,60-21.5,50-22,59,0,33,0,33Z"/>
  <path id="Form_3" data-name="Form 3" class="cls-2" d="M1166,1110s47.5-86,86-106,98.5-23,123-13,75.5,70,78,76,4.5,12-15-3-66.5-36-89-39-46.5-3-69,11-23.5,27-48,49-29.5,28-37,30-19,2-19,2Z"/>
  <path id="Form_4" data-name="Form 4" class="cls-2" d="M890,1096s-17.5-39-26-44-44.5-44-63-53-48.5-24-73-22-45.5,13-60,21-36.5,35-49,45-13,30-13,30a103.755,103.755,0,0,0,16-12c7.5-7,32.5-25,55-32s47.5-5,60-5,32.5-2,43,8,34.5,26,37,32,17.5,17,27,24,30,16,30,16Z"/>
  <path id="Form_5" data-name="Form 5" class="cls-2" d="M1213,1361s-17.5,32-36,42-58.5,14-71,14-39.5-8-56-15a77.178,77.178,0,0,1-27-20,120.594,120.594,0,0,1-29,21c-17.5,9-51.5,19-74,15s-51.5-24-61-36-24-22-24-22,5.5,20,11,26,16.5,23,33,35,30.5,19,52,17,49.5-7,59-13,35-24,35-24l25,24s29.5,10,43,14,35.5,5,45,4,42.5-15,46-22,25.5-25,28-34S1213,1361,1213,1361Z"/>
</svg>
