<?xml version="1.0" standalone="no"?>
<!DOCTYPE svg PUBLIC "-//W3C//DTD SVG 20010904//EN"
 "http://www.w3.org/TR/2001/REC-SVG-20010904/DTD/svg10.dtd">
<svg version="1.0" xmlns="http://www.w3.org/2000/svg"
 width="700.000000pt" height="700.000000pt" viewBox="0 0 700.000000 700.000000"
 preserveAspectRatio="xMidYMid meet">
<metadata>
Created by potrace 1.11, written by Peter Selinger 2001-2013
</metadata>
<g transform="translate(0.000000,700.000000) scale(0.100000,-0.100000)"
fill="#000000" stroke="none">
<path d="M3098 6995 c-1 -1 -64 -6 -138 -9 -74 -4 -144 -9 -155 -11 -11 -2
-56 -7 -100 -10 -44 -3 -114 -9 -155 -15 -112 -15 -150 -19 -200 -25 -25 -3
-52 -8 -61 -11 -9 -2 -32 -7 -50 -9 -19 -2 -81 -14 -139 -26 -58 -11 -116 -23
-130 -25 -14 -3 -96 -23 -183 -45 -1279 -322 -1795 -975 -1216 -1540 81 -79
175 -151 278 -212 236 -140 460 -234 780 -328 74 -21 136 -41 138 -43 2 -2 -5
-37 -17 -77 -27 -99 -60 -268 -68 -354 -14 -145 -7 -500 12 -600 2 -11 7 -42
11 -70 16 -113 81 -338 132 -459 100 -238 232 -447 394 -622 38 -40 69 -79 70
-86 0 -16 0 -340 0 -390 -1 -30 -5 -38 -19 -38 -10 0 -63 -16 -118 -36 -54
-20 -112 -40 -129 -46 -16 -5 -39 -14 -50 -18 -11 -5 -40 -16 -65 -24 -25 -8
-153 -53 -285 -101 -132 -48 -307 -111 -390 -140 -82 -30 -202 -72 -265 -95
-124 -45 -423 -153 -640 -230 -74 -27 -180 -65 -235 -84 -55 -20 -101 -36
-103 -36 -1 0 -2 -266 -2 -590 l0 -590 3500 0 3500 0 0 620 0 619 -82 25
c-142 43 -656 193 -718 210 -8 3 -53 16 -100 30 -112 33 -304 89 -465 136 -71
21 -186 55 -255 75 -69 20 -132 39 -140 41 -42 10 -690 203 -697 207 -4 3 -8
109 -7 236 l1 230 71 76 c134 143 241 301 337 496 83 169 170 439 191 596 3
26 7 50 9 53 10 17 20 191 20 350 0 178 -5 245 -25 375 -16 100 -20 117 -46
214 -25 96 -24 108 14 112 35 4 325 97 443 142 296 113 576 281 732 440 224
229 277 460 163 703 -163 345 -675 645 -1411 828 -77 19 -153 37 -170 40 -16
4 -41 9 -55 12 -55 11 -221 41 -275 49 -22 4 -51 8 -65 11 -70 11 -270 35
-385 44 -71 6 -155 13 -185 16 -59 6 -796 15 -802 9z m722 -639 c191 -12 328
-23 380 -31 14 -2 50 -7 80 -10 90 -10 299 -42 380 -59 41 -8 86 -17 100 -20
79 -13 305 -74 430 -116 691 -229 949 -569 669 -884 -129 -143 -355 -269 -683
-377 -82 -27 -150 -48 -151 -47 0 2 -14 35 -30 73 -52 127 -180 357 -242 435
-7 8 -26 33 -43 55 -281 360 -710 607 -1130 652 -62 6 -294 6 -328 -1 -15 -3
-45 -8 -67 -11 -161 -22 -360 -91 -525 -183 -260 -144 -498 -379 -673 -662
-39 -65 -131 -248 -165 -331 l-10 -26 -74 22 c-40 12 -80 24 -88 27 -156 56
-214 79 -315 129 -134 65 -134 65 -227 132 -315 226 -316 506 -4 736 180 133
509 269 836 346 79 19 169 38 235 50 44 8 91 17 105 20 14 3 43 8 65 11 22 2
54 7 70 10 60 10 81 13 140 19 89 10 103 12 185 19 41 4 91 9 110 11 19 3 96
7 170 10 74 3 135 7 137 8 5 6 555 -1 663 -7z"/>
</g>
</svg>
