<?xml version="1.0" encoding="UTF-8" standalone="no"?>
<!-- Created with Inkscape (http://www.inkscape.org/) -->

<svg
   width="1000"
   height="600"
   viewBox="0 0 1000 600"
   version="1.1"
   id="svg1"
   xml:space="preserve"
   xmlns:xlink="http://www.w3.org/1999/xlink"
   xmlns="http://www.w3.org/2000/svg"
   xmlns:svg="http://www.w3.org/2000/svg"><defs
     id="defs1"><linearGradient
       id="swatch100"
       gradientTransform="translate(1518,604)"><stop
         style="stop-color:#4badd8;stop-opacity:1"
         offset="0"
         id="stop100" /></linearGradient><linearGradient
       id="swatch98"><stop
         style="stop-color:#c6257d;stop-opacity:1"
         offset="0"
         id="stop98" /></linearGradient><linearGradient
       xlink:href="#swatch100"
       id="linearGradient21"
       gradientUnits="userSpaceOnUse"
       x1="146.90932"
       y1="325.82742"
       x2="166.10332"
       y2="325.82742" /><linearGradient
       xlink:href="#swatch100"
       id="linearGradient15"
       gradientUnits="userSpaceOnUse"
       x1="146.90932"
       y1="325.82742"
       x2="166.10332"
       y2="325.82742"
       gradientTransform="translate(-14.462455)" /><linearGradient
       id="swatch100-9"
       gradientTransform="translate(1518,604)"><stop
         style="stop-color:#4badd8;stop-opacity:1"
         offset="0"
         id="stop100-3" /></linearGradient><linearGradient
       id="swatch98-6"><stop
         style="stop-color:#c6257d;stop-opacity:1"
         offset="0"
         id="stop98-0" /></linearGradient></defs><g
     id="layer1"
     transform="translate(599.99989,-500.00046)"><path
       style="fill:#ffffff;stroke-linecap:round;stroke-linejoin:round;stroke-dasharray:3.5, 10.5;paint-order:fill markers stroke"
       d="m -396.63281,1026.9531 c -1.24769,-0.057 -2.50559,-0.026 -3.76172,0.1094 a 1.75,1.75 0 0 0 -1.55274,1.9277 1.75,1.75 0 0 0 1.92774,1.5508 c 1.06376,-0.1147 2.14384,-0.1416 3.22656,-0.092 a 1.75,1.75 0 0 0 1.82813,-1.6679 1.75,1.75 0 0 0 -1.66797,-1.8282 z m 9.41211,3.2129 a 1.75,1.75 0 0 0 -1.09571,0.7715 1.75,1.75 0 0 0 0.54102,2.4141 c 0.91148,0.5786 1.78134,1.2264 2.60352,1.9336 a 1.75,1.75 0 0 0 2.46875,-0.1856 1.75,1.75 0 0 0 -0.18555,-2.4668 c -0.94669,-0.8143 -1.95329,-1.5644 -3.01172,-2.2363 a 1.75,1.75 0 0 0 -1.32031,-0.2305 z m -22.39649,0.7676 a 1.75,1.75 0 0 0 -1.28711,0.3711 c -1.00215,0.7992 -1.91919,1.6924 -2.74804,2.6523 a 1.75,1.75 0 0 0 0.18164,2.4688 1.75,1.75 0 0 0 2.46875,-0.1817 c 0.69579,-0.8058 1.45905,-1.5474 2.28125,-2.2031 a 1.75,1.75 0 0 0 0.27734,-2.459 1.75,1.75 0 0 0 -1.17383,-0.6484 z m -58.43945,6.5098 c -1.36286,0.3981 -2.60072,1.076 -3.67383,1.9257 a 1.75,1.75 0 0 0 -0.28711,2.459 1.75,1.75 0 0 0 2.45899,0.2852 c 0.75468,-0.5976 1.60536,-1.0538 2.48437,-1.3106 a 1.75,1.75 0 0 0 1.1875,-2.1699 1.75,1.75 0 0 0 -2.16992,-1.1894 z m 401.705078,0.025 a 1.75,1.75 0 0 0 -1.917969,1.5625 1.75,1.75 0 0 0 1.564453,1.9199 c 1.108222,0.1127 2.209864,0.2752 3.298828,0.4902 a 1.75,1.75 0 0 0 2.054688,-1.3789 1.75,1.75 0 0 0 -1.376954,-2.0547 c -1.200098,-0.237 -2.410062,-0.4157 -3.623046,-0.539 z m -11.097657,0.4277 c -1.258123,0.3552 -2.445505,0.8522 -3.564453,1.4238 a 1.75,1.75 0 0 0 -0.761719,2.3555 1.75,1.75 0 0 0 2.353516,0.7617 c 0.957669,-0.4892 1.935698,-0.8929 2.923828,-1.1719 a 1.75,1.75 0 0 0 1.208985,-2.1601 1.75,1.75 0 0 0 -2.160157,-1.209 z m -380.568361,1.5156 a 1.75,1.75 0 0 0 -1.04687,0.8359 1.75,1.75 0 0 0 0.6875,2.377 c 0.95713,0.5279 1.89312,1.1232 2.81445,1.7617 a 1.75,1.75 0 0 0 2.43359,-0.4414 1.75,1.75 0 0 0 -0.4414,-2.4336 c -0.99605,-0.6903 -2.03107,-1.3521 -3.11719,-1.9512 a 1.75,1.75 0 0 0 -1.33008,-0.1484 z m 80.91797,1.1602 a 1.75,1.75 0 0 0 -1.33789,0.078 1.75,1.75 0 0 0 -0.8125,2.3379 c 0.47297,0.9759 0.87827,1.9856 1.20898,3.0176 a 1.75,1.75 0 0 0 2.20118,1.1328 1.75,1.75 0 0 0 1.13086,-2.2012 c -0.38132,-1.1899 -0.84609,-2.3529 -1.39063,-3.4766 a 1.75,1.75 0 0 0 -1,-0.8886 z m 323.378907,0.9824 a 1.75,1.75 0 0 0 -1.035156,0.8516 1.75,1.75 0 0 0 0.722656,2.3671 c 0.979099,0.5218 1.934788,1.091 2.863281,1.7051 a 1.75,1.75 0 0 0 2.423828,-0.4941 1.75,1.75 0 0 0 -0.49414,-2.4239 c -1.017595,-0.673 -2.068338,-1.3014 -3.148438,-1.8769 a 1.75,1.75 0 0 0 -1.332031,-0.1289 z m -362.972657,1.084 a 1.75,1.75 0 0 0 -2.17969,1.1758 c -0.35313,1.18 -0.63862,2.3768 -0.86328,3.582 a 1.75,1.75 0 0 0 1.40039,2.041 1.75,1.75 0 0 0 2.04102,-1.4004 c 0.20292,-1.0885 0.45955,-2.1634 0.77539,-3.2187 a 1.75,1.75 0 0 0 -1.17383,-2.1797 z m 328.080079,2.6015 a 1.75,1.75 0 0 0 -1.267578,0.4297 c -0.894564,0.7851 -1.770924,1.5861 -2.632813,2.3946 a 1.75,1.75 0 0 0 -0.07813,2.4726 1.75,1.75 0 0 0 2.472656,0.08 c 0.839904,-0.7878 1.687706,-1.5624 2.546875,-2.3164 a 1.75,1.75 0 0 0 0.160157,-2.4688 1.75,1.75 0 0 0 -1.201172,-0.5918 z m -387.195309,2.4864 a 1.75,1.75 0 0 0 -2.3125,0.8808 c -0.49245,1.0987 -0.94661,2.2064 -1.37696,3.3145 a 1.75,1.75 0 0 0 0.99805,2.2636 1.75,1.75 0 0 0 2.26563,-0.996 c 0.41434,-1.0669 0.84666,-2.1198 1.30859,-3.1504 a 1.75,1.75 0 0 0 -0.88281,-2.3125 z m 29.25586,0.012 a 1.75,1.75 0 0 0 -1.16797,0.6562 1.75,1.75 0 0 0 0.29297,2.4571 c 0.9261,0.7291 1.85994,1.4488 2.80468,2.1582 a 1.75,1.75 0 0 0 2.45118,-0.3477 1.75,1.75 0 0 0 -0.34961,-2.4512 c -0.9212,-0.6916 -1.83497,-1.3951 -2.74219,-2.1093 a 1.75,1.75 0 0 0 -1.28906,-0.3633 z m 403.128902,2.793 a 1.75,1.75 0 0 0 -0.04687,2.4746 c 0.786089,0.8159 1.552096,1.6569 2.298828,2.5175 a 1.75,1.75 0 0 0 2.46875,0.1758 1.75,1.75 0 0 0 0.173828,-2.4687 c -0.782356,-0.9017 -1.587189,-1.788 -2.419922,-2.6524 a 1.75,1.75 0 0 0 -2.474609,-0.047 z m -331.718752,3.5703 a 1.75,1.75 0 0 0 -1.91992,1.5605 c -0.11125,1.0818 -0.29695,2.1624 -0.54687,3.2305 a 1.75,1.75 0 0 0 1.30664,2.1015 1.75,1.75 0 0 0 2.10156,-1.3046 c 0.28165,-1.2037 0.49364,-2.4287 0.62109,-3.668 a 1.75,1.75 0 0 0 -1.5625,-1.9199 z m 276.333986,0.8457 a 1.75,1.75 0 0 0 -1.236326,0.5156 c -0.82344,0.8256 -1.64642,1.6488 -2.47071,2.4668 a 1.75,1.75 0 0 0 -0.01,2.4746 1.75,1.75 0 0 0 2.47656,0.01 c 0.831929,-0.8256 1.658125,-1.654 2.482424,-2.4805 a 1.75,1.75 0 0 0 -0.0039,-2.4746 1.75,1.75 0 0 0 -1.238282,-0.5117 z m -69.445316,0.6054 c -1.2541,0.01 -2.51917,0.109 -3.77343,0.3262 a 1.75,1.75 0 0 0 -1.42383,2.0234 1.75,1.75 0 0 0 2.02148,1.4258 c 1.04492,-0.1809 2.1167,-0.2693 3.19532,-0.2754 a 1.75,1.75 0 0 0 1.74023,-1.7597 1.75,1.75 0 0 0 -1.75977,-1.7403 z m -265.76953,0.6309 a 1.75,1.75 0 0 0 -2.42383,0.5039 1.75,1.75 0 0 0 0.50391,2.4238 c 0.98608,0.6468 1.98034,1.2835 2.98242,1.9082 a 1.75,1.75 0 0 0 2.41016,-0.5605 1.75,1.75 0 0 0 -0.55859,-2.4102 c -0.97792,-0.6097 -1.9491,-1.2323 -2.91407,-1.8652 z m 15.36914,0.2461 a 1.75,1.75 0 0 0 -1.60351,1.8867 c 0.0989,1.2113 0.24965,2.4183 0.44922,3.6172 a 1.75,1.75 0 0 0 2.01367,1.4394 1.75,1.75 0 0 0 1.4375,-2.0136 c -0.18355,-1.1027 -0.3192,-2.2139 -0.41016,-3.3281 a 1.75,1.75 0 0 0 -1.88672,-1.6016 z m 569.66016,1.0273 c -1.20609,-0.027 -2.41094,-0.013 -3.61133,0.037 a 1.75,1.75 0 0 0 -1.67578,1.8204 1.75,1.75 0 0 0 1.82227,1.6757 c 1.13078,-0.047 2.2601,-0.06 3.38671,-0.035 a 1.75,1.75 0 0 0 1.78907,-1.711 1.75,1.75 0 0 0 -1.71094,-1.7871 z m -14.33984,1.4551 c -1.17165,0.2815 -2.32925,0.5997 -3.47461,0.9473 a 1.75,1.75 0 0 0 -1.16602,2.1836 1.75,1.75 0 0 0 2.18164,1.166 c 1.08737,-0.33 2.18021,-0.6309 3.27734,-0.8945 a 1.75,1.75 0 0 0 1.29297,-2.1094 1.75,1.75 0 0 0 -2.11132,-1.293 z m 25.15625,0.1035 a 1.75,1.75 0 0 0 -2.17188,1.1856 1.75,1.75 0 0 0 1.1875,2.1718 c 1.05823,0.3107 2.09436,0.6786 3.09961,1.1075 a 1.75,1.75 0 0 0 2.29687,-0.9239 1.75,1.75 0 0 0 -0.92382,-2.2949 c -1.14102,-0.4867 -2.3078,-0.8996 -3.48828,-1.2461 z m -66.140629,1.3399 a 1.75,1.75 0 0 0 -1.97461,1.4922 1.75,1.75 0 0 0 1.492188,1.9746 c 1.151356,0.1605 2.299399,0.3261 3.445312,0.498 a 1.75,1.75 0 0 0 1.990239,-1.4726 1.75,1.75 0 0 0 -1.470708,-1.9903 c -1.161596,-0.1743 -2.32281,-0.3402 -3.482421,-0.5019 z m -276.595701,0.051 a 1.75,1.75 0 0 0 -1.27149,0.4218 c -0.94331,0.8158 -1.81656,1.6853 -2.64257,2.5742 a 1.75,1.75 0 0 0 0.0918,2.4727 1.75,1.75 0 0 0 2.47266,-0.092 c 0.76194,-0.82 1.54731,-1.5979 2.36914,-2.3086 a 1.75,1.75 0 0 0 0.17773,-2.4687 1.75,1.75 0 0 0 -1.19726,-0.5996 z m 265.376951,0.012 c -1.205314,0.4742 -2.321216,1.0654 -3.375,1.6894 a 1.75,1.75 0 0 0 -0.615235,2.3965 1.75,1.75 0 0 0 2.398438,0.6152 c 0.952788,-0.5641 1.90806,-1.0648 2.875,-1.4453 a 1.75,1.75 0 0 0 0.986328,-2.2675 1.75,1.75 0 0 0 -2.269531,-0.9883 z m -242.326171,0.053 a 1.75,1.75 0 0 0 -2.4707,0.1621 1.75,1.75 0 0 0 0.16211,2.4707 c 0.84323,0.7394 1.6674,1.5194 2.49023,2.3223 a 1.75,1.75 0 0 0 2.47656,-0.029 1.75,1.75 0 0 0 -0.0312,-2.4746 c -0.84705,-0.8265 -1.71566,-1.6522 -2.62695,-2.4512 z m -322.92969,0.3301 a 1.75,1.75 0 0 0 -2.2207,1.0918 c -0.37562,1.1028 -0.75021,2.2014 -1.13477,3.291 a 1.75,1.75 0 0 0 1.06641,2.2324 1.75,1.75 0 0 0 2.23437,-1.0683 c 0.39203,-1.1108 0.77177,-2.2203 1.14844,-3.3262 a 1.75,1.75 0 0 0 -1.09375,-2.2207 z m 447.703126,0.074 a 1.75,1.75 0 0 0 -1.296875,0.334 1.75,1.75 0 0 0 -0.345703,2.4492 c 0.697575,0.9273 1.395823,1.8679 2.111328,2.8066 a 1.75,1.75 0 0 0 2.453125,0.3301 1.75,1.75 0 0 0 0.330078,-2.4531 c -0.698954,-0.917 -1.392494,-1.8498 -2.097656,-2.7871 a 1.75,1.75 0 0 0 -1.154297,-0.6797 z m 142.677734,1.7695 a 1.75,1.75 0 0 0 -2.05273,1.3828 1.75,1.75 0 0 0 1.38281,2.0528 c 1.13293,0.2214 2.26132,0.4542 3.38672,0.7012 a 1.75,1.75 0 0 0 2.08398,-1.334 1.75,1.75 0 0 0 -1.33398,-2.084 c -1.1537,-0.2531 -2.30978,-0.4926 -3.4668,-0.7188 z m -531.70898,0.5782 a 1.75,1.75 0 0 0 -2.36524,0.7324 1.75,1.75 0 0 0 0.73438,2.3633 c 1.04702,0.5513 2.10292,1.0891 3.16797,1.6093 a 1.75,1.75 0 0 0 2.33984,-0.8047 1.75,1.75 0 0 0 -0.80469,-2.3398 c -1.03149,-0.5039 -2.05476,-1.0247 -3.07226,-1.5605 z m 545.29101,0.5175 c -1.08017,0.5092 -2.14915,1.0429 -3.20508,1.6055 a 1.75,1.75 0 0 0 -0.7207,2.3691 1.75,1.75 0 0 0 2.36719,0.7207 c 0.0611,-0.033 0.12432,-0.061 0.18555,-0.094 a 1.75,1.75 0 0 0 0.54492,1.0156 c 1.0974,0.3316 2.18774,0.6817 3.26953,1.0528 a 1.75,1.75 0 0 0 2.22265,-1.0879 1.75,1.75 0 0 0 -1.08789,-2.2227 c -0.54216,-0.186 -1.08986,-0.3496 -1.63476,-0.5254 a 1.75,1.75 0 0 0 0.38867,-1.998 1.75,1.75 0 0 0 -2.33008,-0.836 z m -722.30859,0.7383 a 1.75,1.75 0 0 0 -0.61914,2.3965 c 0.62782,1.066 1.30722,2.0717 1.99023,3.0449 a 1.75,1.75 0 0 0 2.4375,0.4278 1.75,1.75 0 0 0 0.42774,-2.4375 c -0.65701,-0.9362 -1.28346,-1.8678 -1.83985,-2.8125 a 1.75,1.75 0 0 0 -2.39648,-0.6192 z m 490.34765,0.1778 a 1.75,1.75 0 0 0 -1.26562,0.4394 c -0.85876,0.7641 -1.72563,1.5137 -2.60547,2.2422 a 1.75,1.75 0 0 0 -0.23242,2.4648 1.75,1.75 0 0 0 2.46484,0.2325 c 0.91735,-0.7596 1.81681,-1.5374 2.70117,-2.3243 a 1.75,1.75 0 0 0 0.14258,-2.4707 1.75,1.75 0 0 0 -1.20508,-0.5839 z m -229.55273,0.068 c -1.28903,-0 -2.55365,0.1287 -3.78125,0.3399 a 1.75,1.75 0 0 0 -1.42773,2.0214 1.75,1.75 0 0 0 2.02148,1.4278 c 1.07094,-0.1842 2.13679,-0.2912 3.18164,-0.2891 a 1.75,1.75 0 0 0 1.75391,-1.7461 1.75,1.75 0 0 0 -1.74805,-1.7539 z m 511.60742,1.2676 a 1.75,1.75 0 0 0 -1.24414,0.5019 1.75,1.75 0 0 0 -0.0234,2.4747 c 0.76357,0.7789 1.47834,1.6094 2.14453,2.4824 a 1.75,1.75 0 0 0 2.45313,0.3301 1.75,1.75 0 0 0 0.33008,-2.4532 c -0.74926,-0.9818 -1.55985,-1.9232 -2.42969,-2.8105 a 1.75,1.75 0 0 0 -1.23047,-0.5254 z m -553.8125,0.8711 a 1.75,1.75 0 0 0 -1.21679,0.5625 c -0.6972,0.7569 -1.48314,1.4323 -2.33594,2.0019 a 1.75,1.75 0 0 0 -0.48242,2.4278 1.75,1.75 0 0 0 2.42578,0.4824 c 1.08749,-0.7264 2.08533,-1.5819 2.96875,-2.541 a 1.75,1.75 0 0 0 -0.10157,-2.4727 1.75,1.75 0 0 0 -1.25781,-0.4609 z m 29.39063,1.459 a 1.75,1.75 0 0 0 -1.33985,0.01 c -1.09821,0.461 -2.18329,0.9429 -3.25781,1.4395 a 1.75,1.75 0 0 0 -0.85351,2.3222 1.75,1.75 0 0 0 2.32226,0.8555 c 1.04353,-0.4822 2.09124,-0.9485 3.14453,-1.3906 a 1.75,1.75 0 0 0 0.93555,-2.291 1.75,1.75 0 0 0 -0.95117,-0.9414 z m 81.86914,0.016 c -1.20464,0.237 -2.3892,0.5364 -3.55274,0.8789 a 1.75,1.75 0 0 0 -1.18554,2.1738 1.75,1.75 0 0 0 2.17382,1.1836 c 1.07452,-0.3163 2.15544,-0.5873 3.24024,-0.8008 a 1.75,1.75 0 0 0 1.37891,-2.0546 1.75,1.75 0 0 0 -2.05469,-1.3809 z m 341.705076,0.1348 c -0.908686,0.7456 -1.808426,1.4972 -2.705079,2.248 a 1.75,1.75 0 0 0 -0.21875,2.4648 1.75,1.75 0 0 0 2.464844,0.2188 c 0.892338,-0.7472 1.784576,-1.4901 2.679688,-2.2246 a 1.75,1.75 0 0 0 0.242187,-2.4629 1.75,1.75 0 0 0 -2.46289,-0.2441 z m -330.466796,0.1972 a 1.75,1.75 0 0 0 -2.19141,1.1524 1.75,1.75 0 0 0 1.15235,2.1894 c 1.07188,0.3328 2.13934,0.7085 3.20703,1.1113 a 1.75,1.75 0 0 0 2.25586,-1.0195 1.75,1.75 0 0 0 -1.01953,-2.2539 c -1.11522,-0.4208 -2.24777,-0.8206 -3.4043,-1.1797 z m -151.52149,0.166 a 1.75,1.75 0 0 0 -2.24023,1.0508 1.75,1.75 0 0 0 1.05078,2.2403 c 1.12255,0.406 2.25574,0.7867 3.40235,1.1367 a 1.75,1.75 0 0 0 2.18554,-1.1621 1.75,1.75 0 0 0 -1.16211,-2.1856 c -1.08501,-0.3312 -2.16481,-0.6925 -3.23633,-1.0801 z m 412.9824263,0.2832 c -1.2258836,0.4082 -2.3817851,0.9388 -3.47656255,1.5293 a 1.75,1.75 0 0 0 -0.70898437,2.3711 1.75,1.75 0 0 0 2.37109372,0.709 c 0.9579233,-0.5167 1.9312,-0.9599 2.9199219,-1.289 a 1.75,1.75 0 0 0 1.1074219,-2.2129 1.75,1.75 0 0 0 -2.2128906,-1.1075 z m -332.4824263,0.2872 a 1.75,1.75 0 0 0 -1.32421,0.207 1.75,1.75 0 0 0 -0.58204,2.4043 c 0.5164,0.8468 0.91893,1.7996 1.23438,2.8066 a 1.75,1.75 0 0 0 2.19336,1.1465 1.75,1.75 0 0 0 1.14648,-2.1934 c -0.38149,-1.2178 -0.88671,-2.4353 -1.58593,-3.582 a 1.75,1.75 0 0 0 -1.08204,-0.789 z m 180.04688,0.3261 a 1.75,1.75 0 0 0 -1.20508,0.5879 1.75,1.75 0 0 0 0.1543,2.4707 c 0.90149,0.7962 1.8346,1.5692 2.80664,2.3047 a 1.75,1.75 0 0 0 2.45117,-0.3398 1.75,1.75 0 0 0 -0.33984,-2.4512 c -0.88876,-0.6725 -1.75425,-1.3904 -2.60157,-2.1387 a 1.75,1.75 0 0 0 -1.26562,-0.4336 z m -266.75781,0.3457 a 1.75,1.75 0 0 0 -0.86524,2.3184 c 0.50899,1.1138 1.07463,2.204 1.69922,3.2637 a 1.75,1.75 0 0 0 2.39649,0.6191 1.75,1.75 0 0 0 0.61914,-2.3945 c -0.56022,-0.9505 -1.0705,-1.9351 -1.53125,-2.9434 a 1.75,1.75 0 0 0 -2.31836,-0.8633 z m 430.738278,0.6367 a 1.75,1.75 0 0 0 -2.439453,0.4102 1.75,1.75 0 0 0 0.408203,2.4395 c 0.833344,0.5938 1.619778,1.3103 2.375,2.0976 a 1.75,1.75 0 0 0 2.474609,0.053 1.75,1.75 0 0 0 0.05078,-2.4746 c -0.858887,-0.8954 -1.801296,-1.7644 -2.869141,-2.5254 z m 95.937502,0.5079 c -0.94839,0.7591 -1.87333,1.5625 -2.75586,2.4218 a 1.75,1.75 0 0 0 -0.0312,2.4746 1.75,1.75 0 0 0 2.47461,0.033 c 0.78926,-0.7685 1.62697,-1.4984 2.5,-2.1972 a 1.75,1.75 0 0 0 0.27148,-2.461 1.75,1.75 0 0 0 -2.45898,-0.2714 z m -300.04492,0.086 a 1.75,1.75 0 0 0 -2.46875,0.1797 c -0.74095,0.8569 -1.50015,1.6838 -2.28907,2.4687 a 1.75,1.75 0 0 0 -0.006,2.4746 1.75,1.75 0 0 0 2.47461,0.01 c 0.86529,-0.8609 1.68371,-1.7542 2.46875,-2.6622 a 1.75,1.75 0 0 0 -0.17968,-2.4687 z m 325.80664,0.016 a 1.75,1.75 0 0 0 -2.36914,0.7168 1.75,1.75 0 0 0 0.71679,2.3692 c 0.988,0.5293 1.95112,1.0954 2.88086,1.7031 a 1.75,1.75 0 0 0 2.42188,-0.5078 1.75,1.75 0 0 0 -0.50782,-2.4219 c -1.0234,-0.6689 -2.07395,-1.2869 -3.14257,-1.8594 z m -533.0918,0.6113 a 1.75,1.75 0 0 0 -1.88477,1.6016 1.75,1.75 0 0 0 1.60157,1.8867 c 1.22072,0.099 2.45623,0.1386 3.69726,0.098 a 1.75,1.75 0 0 0 1.69141,-1.8067 1.75,1.75 0 0 0 -1.80664,-1.6914 c -1.09117,0.036 -2.19416,0 -3.29883,-0.088 z m 373.228516,0.1602 a 1.75,1.75 0 0 0 -2.472657,0.074 1.75,1.75 0 0 0 0.07422,2.4746 c 0.897358,0.8446 1.856877,1.6511 2.898438,2.3789 a 1.75,1.75 0 0 0 2.4375,-0.4316 1.75,1.75 0 0 0 -0.431641,-2.4355 c -0.871527,-0.6091 -1.704489,-1.3064 -2.505859,-2.0606 z m -258.310546,0.9492 a 1.75,1.75 0 0 0 -1.33984,0.047 c -1.07632,0.4921 -2.14084,0.9986 -3.19922,1.5117 a 1.75,1.75 0 0 0 -0.8125,2.3379 1.75,1.75 0 0 0 2.33984,0.8125 c 1.04116,-0.5048 2.08317,-1.0004 3.12891,-1.4785 a 1.75,1.75 0 0 0 0.86328,-2.3184 1.75,1.75 0 0 0 -0.98047,-0.9121 z m 160.54297,0.1699 c -0.97001,0.5517 -1.95851,1.0588 -2.9668,1.5098 a 1.75,1.75 0 0 0 -0.88281,2.3125 1.75,1.75 0 0 0 2.31054,0.8828 c 1.12164,-0.5017 2.21155,-1.0604 3.26954,-1.6621 a 1.75,1.75 0 0 0 0.65625,-2.3867 1.75,1.75 0 0 0 -2.38672,-0.6563 z m -123.90821,0.6563 a 1.75,1.75 0 0 0 -2.2871,0.9434 1.75,1.75 0 0 0 0.94335,2.289 c 1.08785,0.4524 2.18167,0.8936 3.28321,1.3223 a 1.75,1.75 0 0 0 2.26562,-0.9961 1.75,1.75 0 0 0 -0.99609,-2.2656 c -1.07296,-0.4176 -2.1424,-0.8494 -3.20899,-1.293 z m -240.88671,0.01 a 1.75,1.75 0 0 0 -2.40625,0.5781 c -0.57485,0.9394 -1.20343,1.8482 -1.87891,2.7226 a 1.75,1.75 0 0 0 0.31445,2.4551 1.75,1.75 0 0 0 2.45508,-0.3144 c 0.75082,-0.972 1.45079,-1.9845 2.09375,-3.0352 a 1.75,1.75 0 0 0 -0.57812,-2.4062 z m 120.54492,0.6113 c -1.03922,0.5416 -2.07259,1.0851 -3.10352,1.625 a 1.75,1.75 0 0 0 -0.73828,2.3633 1.75,1.75 0 0 0 2.36133,0.7382 c 1.03612,-0.5426 2.0677,-1.0862 3.09766,-1.623 a 1.75,1.75 0 0 0 0.74414,-2.3613 1.75,1.75 0 0 0 -2.36133,-0.7422 z M -9,1075.6074 c -1.002673,0.3626 -2.023016,0.6342 -3.041016,0.7813 a 1.75,1.75 0 0 0 -1.480468,1.9824 1.75,1.75 0 0 0 1.982421,1.4805 c 1.292016,-0.1866 2.5379209,-0.5226 3.7285161,-0.9532 a 1.75,1.75 0 0 0 1.0507813,-2.2402 A 1.75,1.75 0 0 0 -9,1075.6074 Z m -581.86133,0.1289 a 1.75,1.75 0 0 0 -0.0566,2.4746 c 0.82536,0.8645 1.67161,1.7082 2.53711,2.5313 a 1.75,1.75 0 0 0 2.47266,-0.062 1.75,1.75 0 0 0 -0.0606,-2.4746 c -0.82529,-0.7849 -1.63199,-1.589 -2.41797,-2.4121 a 1.75,1.75 0 0 0 -2.47461,-0.057 z m 454.36328,0.8262 a 1.75,1.75 0 0 0 -2.07422,1.3516 1.75,1.75 0 0 0 1.35352,2.0722 c 1.25396,0.264 2.53602,0.405 3.82422,0.4121 a 1.75,1.75 0 0 0 1.75976,-1.7402 1.75,1.75 0 0 0 -1.74023,-1.7598 c -1.04511,-0.01 -2.09399,-0.1193 -3.12305,-0.3359 z m 199.421878,0.4199 a 1.75,1.75 0 0 0 -1.289062,0.3614 c -0.904692,0.7104 -1.818397,1.4075 -2.742188,2.0898 a 1.75,1.75 0 0 0 -0.367187,2.4492 1.75,1.75 0 0 0 2.447265,0.3672 c 0.953047,-0.7039 1.893879,-1.4217 2.824219,-2.1523 a 1.75,1.75 0 0 0 0.294922,-2.4571 1.75,1.75 0 0 0 -1.167969,-0.6582 z m 118.429692,0.6563 a 1.75,1.75 0 0 0 -1.31836,0.2422 1.75,1.75 0 0 0 -0.51758,2.4199 c 0.65577,1.0131 1.34767,2.0048 2.07422,2.9707 a 1.75,1.75 0 0 0 2.44922,0.3457 1.75,1.75 0 0 0 0.34765,-2.4512 c -0.67603,-0.8988 -1.32148,-1.8219 -1.93359,-2.7676 a 1.75,1.75 0 0 0 -1.10156,-0.7597 z m -413.25,0.7734 a 1.75,1.75 0 0 0 -2.14454,1.2344 1.75,1.75 0 0 0 1.23633,2.1445 c 1.15282,0.3101 2.31336,0.5942 3.48047,0.8496 a 1.75,1.75 0 0 0 2.08399,-1.3359 1.75,1.75 0 0 0 -1.33594,-2.084 c -1.11222,-0.2434 -2.21998,-0.5126 -3.32031,-0.8086 z m -63.57422,0.8809 c -1.03998,0.515 -2.07892,1.0223 -3.1211,1.5175 a 1.75,1.75 0 0 0 -0.83007,2.3321 1.75,1.75 0 0 0 2.33203,0.8301 c 1.06533,-0.5063 2.1209,-1.0225 3.17187,-1.543 a 1.75,1.75 0 0 0 0.79297,-2.3457 1.75,1.75 0 0 0 -2.3457,-0.791 z m 93.52343,0.1386 c -0.99655,0.3976 -2.02969,0.717 -3.08398,0.961 a 1.75,1.75 0 0 0 -1.31055,2.0996 1.75,1.75 0 0 0 2.09961,1.3105 c 1.21857,-0.282 2.42124,-0.654 3.5918,-1.1211 a 1.75,1.75 0 0 0 0.97656,-2.2734 1.75,1.75 0 0 0 -2.27344,-0.9766 z m 347.3125,1.0157 a 1.75,1.75 0 0 0 -0.63867,2.3906 c 0.51584,0.8913 0.92336,1.8381 1.19727,2.8105 a 1.75,1.75 0 0 0 2.16015,1.209 1.75,1.75 0 0 0 1.20899,-2.1582 c -0.35888,-1.274 -0.88442,-2.4875 -1.53711,-3.6152 a 1.75,1.75 0 0 0 -2.39063,-0.6367 z m -363.79296,0.3105 a 1.75,1.75 0 0 0 -1.89258,1.5957 1.75,1.75 0 0 0 1.5957,1.8906 c 1.18686,0.1007 2.37647,0.1776 3.56641,0.2286 a 1.75,1.75 0 0 0 1.82226,-1.6739 1.75,1.75 0 0 0 -1.67383,-1.8242 c -1.14125,-0.049 -2.27985,-0.1203 -3.41796,-0.2168 z m -157.86524,0.016 a 1.75,1.75 0 0 0 -1.33789,0.07 c -1.03634,0.4951 -2.07786,0.9731 -3.125,1.4257 a 1.75,1.75 0 0 0 -0.91211,2.3008 1.75,1.75 0 0 0 2.30078,0.9121 c 1.09467,-0.4732 2.17514,-0.9697 3.24414,-1.4804 a 1.75,1.75 0 0 0 0.82618,-2.3321 1.75,1.75 0 0 0 -0.9961,-0.8965 z m 399.621095,0.1133 a 1.75,1.75 0 0 0 -1.285156,0.3789 1.75,1.75 0 0 0 -0.263672,2.461 c 0.753647,0.9344 1.544175,1.8601 2.396484,2.75 a 1.75,1.75 0 0 0 2.47461,0.053 1.75,1.75 0 0 0 0.05469,-2.4746 c -0.761828,-0.7954 -1.490183,-1.6439 -2.201172,-2.5254 a 1.75,1.75 0 0 0 -1.175781,-0.6426 z m -428.867185,0.375 a 1.75,1.75 0 0 0 -2.45313,0.3281 1.75,1.75 0 0 0 0.33008,2.4532 c 0.99919,0.7625 2.05992,1.4503 3.17383,2.0468 a 1.75,1.75 0 0 0 2.36719,-0.7168 1.75,1.75 0 0 0 -0.71485,-2.3691 c -0.94295,-0.505 -1.8477,-1.0893 -2.70312,-1.7422 z m 509.88476,0.7871 a 1.75,1.75 0 0 0 -1.90234,1.5821 c -0.0304,0.3308 -0.0382,0.6539 -0.0332,0.9687 -0.0103,1.2676 0.37494,2.468 1.01953,3.4844 a 1.75,1.75 0 0 0 2.41601,0.541 1.75,1.75 0 0 0 0.53907,-2.416 c -0.31256,-0.4929 -0.48171,-1.06 -0.47657,-1.586 a 1.750175,1.750175 0 0 0 0,-0.051 c -0.004,-0.2162 0.001,-0.4227 0.0195,-0.6192 a 1.75,1.75 0 0 0 -1.58203,-1.9043 z m -429.2539,0.3985 a 1.75,1.75 0 0 0 -0.1875,2.4668 c 0.86654,1.0104 1.88747,1.9151 3.06054,2.6289 a 1.75,1.75 0 0 0 2.4043,-0.586 1.75,1.75 0 0 0 -0.58398,-2.4043 c -0.82157,-0.4998 -1.57305,-1.1562 -2.22461,-1.916 a 1.75,1.75 0 0 0 -2.46875,-0.1894 z m -172.32032,1.6855 c -0.89602,0.6663 -1.82265,1.2959 -2.77539,1.8945 a 1.75,1.75 0 0 0 -0.55078,2.4141 1.75,1.75 0 0 0 2.41211,0.5508 c 1.02281,-0.6427 2.02749,-1.3248 3.00391,-2.0508 a 1.75,1.75 0 0 0 0.35937,-2.4492 1.75,1.75 0 0 0 -2.44922,-0.3594 z m 189.1543,0.5527 c -1.06791,0.332 -2.13666,0.6164 -3.20703,0.8282 a 1.75,1.75 0 0 0 -1.37695,2.0566 1.75,1.75 0 0 0 2.05664,1.377 c 1.21881,-0.2412 2.40651,-0.5595 3.5664,-0.92 a 1.75,1.75 0 0 0 1.15235,-2.1894 1.75,1.75 0 0 0 -2.19141,-1.1524 z m -269.98242,0 a 1.75,1.75 0 0 0 -2.4375,0.4297 1.75,1.75 0 0 0 0.42969,2.4375 c 0.98171,0.687 1.98271,1.348 3.00195,1.9805 a 1.75,1.75 0 0 0 2.41016,-0.5645 1.75,1.75 0 0 0 -0.56446,-2.4102 c -0.96338,-0.5977 -1.90986,-1.2222 -2.83984,-1.873 z m 628.341796,0.2793 c -0.992422,0.5279 -2.001259,1.0185 -3.02539,1.4629 a 1.75,1.75 0 0 0 -0.910157,2.3027 1.75,1.75 0 0 0 2.302735,0.9082 c 1.116352,-0.4844 2.207925,-1.0162 3.27539,-1.584 a 1.75,1.75 0 0 0 0.72461,-2.3652 1.75,1.75 0 0 0 -2.367188,-0.7246 z m -440.601566,0.1602 c -1.08133,0.1411 -2.16818,0.2113 -3.24804,0.2011 a 1.75,1.75 0 0 0 -1.76563,1.7344 1.75,1.75 0 0 0 1.73438,1.7656 c 1.25337,0.012 2.50038,-0.07 3.73242,-0.2304 a 1.75,1.75 0 0 0 1.50976,-1.961 1.75,1.75 0 0 0 -1.96289,-1.5097 z m 622.05274,2.0429 a 1.75,1.75 0 0 0 -2.47266,0.082 c -0.74331,0.7933 -1.55267,1.5482 -2.40234,2.2832 a 1.75,1.75 0 0 0 -0.17969,2.4687 1.75,1.75 0 0 0 2.46875,0.1777 c 0.91459,-0.791 1.81587,-1.6276 2.66797,-2.5371 a 1.75,1.75 0 0 0 -0.082,-2.4746 z m -40.44922,1.3692 a 1.75,1.75 0 0 0 -2.46875,0.1933 1.75,1.75 0 0 0 0.19531,2.4688 c 0.92162,0.7875 1.87407,1.5397 2.85938,2.2519 a 1.75,1.75 0 0 0 2.44336,-0.3926 1.75,1.75 0 0 0 -0.39258,-2.4433 c -0.90567,-0.6547 -1.78446,-1.3499 -2.63672,-2.0781 z m -156.652344,0.2011 a 1.75,1.75 0 0 0 -2.017579,1.4336 1.75,1.75 0 0 0 1.433594,2.0176 c 1.334618,0.2256 2.639982,0.2306 3.88086,0.1602 a 1.75,1.75 0 0 0 1.648437,-1.8457 1.75,1.75 0 0 0 -1.847656,-1.6485 c -1.087136,0.062 -2.127889,0.047 -3.097656,-0.1172 z m -543.732426,1.7989 c -1.05599,0.4099 -2.12691,0.7885 -3.20703,1.1406 a 1.75,1.75 0 0 0 -1.12109,2.207 1.75,1.75 0 0 0 2.20703,1.1211 c 1.13823,-0.371 2.2676,-0.7726 3.38672,-1.207 a 1.75,1.75 0 0 0 0.99805,-2.2637 1.75,1.75 0 0 0 -2.26368,-0.998 z m -57.03906,0.6523 a 1.75,1.75 0 0 0 -2.28125,0.9629 1.75,1.75 0 0 0 0.96094,2.2793 c 1.11577,0.4539 2.24481,0.8709 3.38281,1.2539 a 1.75,1.75 0 0 0 2.2168,-1.0996 1.75,1.75 0 0 0 -1.09961,-2.2168 c -1.07335,-0.3612 -2.13418,-0.7544 -3.17969,-1.1797 z m 680.2461,0.1348 a 1.75,1.75 0 0 0 -2.26954,0.9863 1.75,1.75 0 0 0 0.98633,2.2695 c 1.13352,0.4469 2.28186,0.8414 3.4375,1.1934 a 1.75,1.75 0 0 0 2.1836,-1.1641 1.75,1.75 0 0 0 -1.16407,-2.1836 c -1.07627,-0.3278 -2.13661,-0.6926 -3.17382,-1.1015 z m 30.51953,1.1347 a 1.75,1.75 0 0 0 -1.32813,0.1719 c -0.85779,0.493 -1.82174,0.8727 -2.8418,1.168 a 1.75,1.75 0 0 0 -1.19531,2.166 1.75,1.75 0 0 0 2.16797,1.1953 c 1.21856,-0.3528 2.44693,-0.8238 3.61328,-1.4941 a 1.75,1.75 0 0 0 0.64453,-2.3907 1.75,1.75 0 0 0 -1.06054,-0.8164 z M -522.25,1094.166 c -1.12575,0.203 -2.25587,0.3827 -3.38672,0.5391 a 1.75,1.75 0 0 0 -1.49414,1.9726 1.75,1.75 0 0 0 1.97461,1.4942 c 1.18046,-0.1633 2.35488,-0.3515 3.52539,-0.5625 a 1.75,1.75 0 0 0 1.41211,-2.0332 1.75,1.75 0 0 0 -2.03125,-1.4102 z m 649.48828,0.291 a 1.75,1.75 0 0 0 -1.93164,1.5469 1.75,1.75 0 0 0 1.54883,1.9316 c 1.1962,0.1318 2.39805,0.2263 3.60547,0.2774 a 1.75,1.75 0 0 0 1.82226,-1.6758 1.75,1.75 0 0 0 -1.67383,-1.8223 c -1.12382,-0.047 -2.24805,-0.1341 -3.37109,-0.2578 z m -680.30273,0.2676 a 1.75,1.75 0 0 0 -1.98242,1.4805 1.75,1.75 0 0 0 1.48046,1.9824 c 1.19837,0.174 2.38853,0.301 3.56641,0.4102 a 1.75,1.75 0 0 0 1.9043,-1.5801 1.75,1.75 0 0 0 -1.58203,-1.9043 c -1.14541,-0.1061 -2.27574,-0.2274 -3.38672,-0.3887 z m 771.56054,0.1582 c -1.00194,0.4329 -2.02778,0.7991 -3.06836,1.086 a 1.75,1.75 0 0 0 -1.2207,2.1523 1.75,1.75 0 0 0 2.15234,1.2227 c 1.20891,-0.3333 2.3857,-0.7556 3.5254,-1.2481 a 1.75,1.75 0 0 0 0.9121,-2.3008 1.75,1.75 0 0 0 -2.30078,-0.9121 z m -15.7832,0.4141 a 1.75,1.75 0 0 0 -2.22852,1.0761 1.75,1.75 0 0 0 1.07618,2.2286 c 1.16515,0.4066 2.35975,0.7477 3.57812,1.0078 a 1.75,1.75 0 0 0 2.07617,-1.3457 1.75,1.75 0 0 0 -1.3457,-2.0782 c -1.06364,-0.227 -2.1186,-0.5265 -3.15625,-0.8886 z m -738.62305,0.2676 c -1.14595,0.036 -2.29213,0.052 -3.43945,0.049 a 1.75,1.75 0 0 0 -1.75391,1.7461 1.75,1.75 0 0 0 1.74415,1.7539 c 1.18598,0 2.37239,-0.014 3.55859,-0.051 a 1.75,1.75 0 0 0 1.69531,-1.8047 1.75,1.75 0 0 0 -1.80469,-1.6933 z"
       id="path1" /><g
       id="layer-2"
       transform="matrix(0.07045489,0,0,0.07045489,233.7913,1051.228)"
       style="fill:none;stroke:#ffffff"><path
         style="fill:#ffffff;stroke:none;stroke-linecap:round;stroke-linejoin:round"
         d="m 533.93555,19.113281 c -9.76191,-0.758275 -19.76564,0.756417 -29.16797,4.746094 L 31.697266,224.59766 c -48.037674,20.38375 -52.851664,90.0002 -8.076172,116.80078 l 39.984375,23.93359 A 25.00005,25.00005 0 0 0 97.896484,356.7207 25.00005,25.00005 0 0 0 89.285156,322.42969 L 49.300781,298.49609 C 36.99193,291.12858 38.020932,276.22852 51.226562,270.625 L 524.29883,69.888672 c 5.13264,-2.177925 10.81369,-0.833017 14.42383,3.416015 3.61013,4.249033 4.02131,10.071686 1.04296,14.785157 L 338.40234,406.76367 c -16.66352,26.37137 -50.63783,34.4665 -77.40429,18.44531 l -4.64258,-2.77929 a 25.00005,25.00005 0 0 0 -34.29102,8.61133 25.00005,25.00005 0 0 0 8.61133,34.29101 l 4.64453,2.7793 c 49.58566,29.67972 114.47995,14.21505 145.34961,-34.63867 L 582.0332,114.79883 C 596.58239,91.773576 594.46164,61.686155 576.82617,40.929687 565.804,27.956895 550.2054,20.377074 533.93555,19.113281 Z"
         id="path49-2-7-9"
         transform="translate(8.435652,-18.881016)" /><path
         style="fill:#ffffff;stroke:none;stroke-linecap:round;stroke-linejoin:round"
         d="m 653.4707,16.705078 a 25.00005,25.00005 0 0 0 -11.89843,5.087891 L 430.10352,187.93164 c -30.34417,23.83955 -48.0879,60.34093 -48.0879,98.92969 v 62.02344 a 25.00005,25.00005 0 0 0 25,25 25.00005,25.00005 0 0 0 25.00196,-25 v -62.02344 c 0,-23.28369 10.66554,-45.22702 28.97461,-59.61133 L 672.46094,61.111328 a 25.00005,25.00005 0 0 0 4.21484,-35.103516 25.00005,25.00005 0 0 0 -23.20508,-9.302734 z"
         id="path49-2-7-3-6-1"
         transform="translate(-257.01656,126.11499)" /></g><path
       style="fill:#ffffff;stroke-linecap:round;stroke-linejoin:round;stroke-dasharray:3.5, 10.5;paint-order:fill markers stroke"
       d="m 118.62305,853.07031 a 1.75,1.75 0 0 0 -1.93164,1.54492 1.75,1.75 0 0 0 1.54492,1.9336 c 1.05176,0.117 2.09438,0.33227 3.10742,0.64062 a 1.75,1.75 0 0 0 2.18359,-1.16601 1.75,1.75 0 0 0 -1.16406,-2.1836 c -1.2191,-0.37108 -2.47299,-0.62856 -3.74023,-0.76953 z m 13.40234,6.32031 a 1.75,1.75 0 0 0 -2.4668,0.1875 1.75,1.75 0 0 0 0.18555,2.4668 c 0.84139,0.72345 1.65172,1.49229 2.43359,2.29492 a 1.75,1.75 0 0 0 2.47461,0.0312 1.75,1.75 0 0 0 0.0332,-2.47461 c -0.84618,-0.86864 -1.73226,-1.70802 -2.66016,-2.50586 z m 7.00195,10.44532 a 1.75,1.75 0 0 0 -0.43945,2.43554 c 0.65211,0.9388 1.28699,1.8937 1.90625,2.85938 a 1.75,1.75 0 0 0 2.41797,0.52734 1.75,1.75 0 0 0 0.5293,-2.41797 c -0.64027,-0.99843 -1.29949,-1.98729 -1.97852,-2.96484 a 1.75,1.75 0 0 0 -2.43555,-0.43945 z m 8.76368,11.70898 a 1.75,1.75 0 0 0 -1.33204,0.14844 1.75,1.75 0 0 0 -0.68945,2.37695 c 0.5574,1.01196 1.10654,2.03209 1.65039,3.05664 a 1.75,1.75 0 0 0 2.36719,0.72461 1.75,1.75 0 0 0 0.72461,-2.36719 c -0.55014,-1.03639 -1.10743,-2.07167 -1.67578,-3.10351 a 1.75,1.75 0 0 0 -1.04492,-0.83594 z m 5.18164,12.53906 a 1.75,1.75 0 0 0 -0.78516,2.34571 l 0.80859,1.62695 0.7461,1.50586 a 1.75,1.75 0 0 0 2.34375,0.79102 1.75,1.75 0 0 0 0.79297,-2.34571 l -0.74805,-1.50586 a 1.750175,1.750175 0 0 0 0,-0.004 l -0.81055,-1.62696 a 1.75,1.75 0 0 0 -2.34765,-0.78711 z m 6.21093,12.54688 a 1.75,1.75 0 0 0 -0.78906,2.3457 c 0.51974,1.04728 1.04131,2.09595 1.57031,3.14258 a 1.75,1.75 0 0 0 2.35157,0.77148 1.75,1.75 0 0 0 0.77343,-2.35156 c -0.52353,-1.03582 -1.04302,-2.07436 -1.56054,-3.11719 a 1.75,1.75 0 0 0 -2.34571,-0.79101 z m 7.67969,12.34375 a 1.75,1.75 0 0 0 -1.33203,0.13476 1.75,1.75 0 0 0 -0.71484,2.36915 c 0.55582,1.03502 1.12111,2.06799 1.69336,3.0957 a 1.75,1.75 0 0 0 2.3789,0.67773 1.75,1.75 0 0 0 0.67774,-2.38086 c -0.56289,-1.01089 -1.11792,-2.02818 -1.66602,-3.04882 a 1.75,1.75 0 0 0 -1.03711,-0.84766 z m 5.58399,12.30469 a 1.75,1.75 0 0 0 -0.53711,2.41601 c 0.63326,0.99626 1.2798,1.98811 1.94531,2.97071 a 1.75,1.75 0 0 0 2.42969,0.46679 1.75,1.75 0 0 0 0.46679,-2.42969 c -0.64295,-0.94929 -1.27028,-1.91385 -1.88867,-2.88671 a 1.75,1.75 0 0 0 -2.41601,-0.53711 z m 41.80468,7.38476 c -1.23083,0.49449 -2.39728,1.27945 -3.28125,2.40235 a 1.750175,1.750175 0 0 0 -0.0137,0.0156 l -0.10351,0.13477 a 1.750175,1.750175 0 0 0 -0.0312,0.041 l -0.0762,0.10742 a 1.75,1.75 0 0 0 0.39649,2.44336 1.75,1.75 0 0 0 2.4414,-0.39648 l 0.0625,-0.084 0.0742,-0.0977 c 0.43948,-0.55827 1.0911,-1.01912 1.83594,-1.31836 a 1.75,1.75 0 0 0 0.9707,-2.27734 1.75,1.75 0 0 0 -2.27539,-0.97071 z m 11.42774,0.0879 a 1.75,1.75 0 0 0 -2.13672,1.25 1.75,1.75 0 0 0 1.25,2.13672 c 1.06722,0.27923 2.12825,0.61861 3.17773,1.00391 a 1.75,1.75 0 0 0 2.24414,-1.03906 1.75,1.75 0 0 0 -1.03906,-2.2461 c -1.1406,-0.41875 -2.30597,-0.79408 -3.49609,-1.10547 z m -43.92383,3.57227 a 1.75,1.75 0 0 0 -1.27539,0.41211 1.75,1.75 0 0 0 -0.19922,2.46679 c 0.77459,0.91049 1.57284,1.80254 2.39453,2.67383 a 1.75,1.75 0 0 0 2.47461,0.0723 1.75,1.75 0 0 0 0.0723,-2.47461 c -0.77919,-0.82623 -1.53806,-1.67237 -2.27539,-2.53906 a 1.75,1.75 0 0 0 -1.19141,-0.61133 z m 57.12695,2.43359 a 1.75,1.75 0 0 0 -2.42383,0.50977 1.75,1.75 0 0 0 0.50977,2.42187 c 0.93918,0.61328 1.85149,1.26078 2.73242,1.94532 a 1.75,1.75 0 0 0 2.45703,-0.3086 1.75,1.75 0 0 0 -0.30859,-2.45508 c -0.96146,-0.7471 -1.95245,-1.45092 -2.9668,-2.11328 z m -27.43164,6.11524 a 1.75,1.75 0 0 0 -1.46289,1.99609 c 0.17904,1.15988 0.36616,2.32152 0.56641,3.48438 a 1.75,1.75 0 0 0 2.02148,1.42773 1.75,1.75 0 0 0 1.42774,-2.02148 c -0.19573,-1.13663 -0.37973,-2.27772 -0.55664,-3.42383 a 1.75,1.75 0 0 0 -1.9961,-1.46289 z m -19.83398,0.81445 a 1.75,1.75 0 0 0 -1.10742,0.75391 1.75,1.75 0 0 0 0.50781,2.42382 c 1.00219,0.65528 2.01935,1.28106 3.04687,1.88477 a 1.75,1.75 0 0 0 2.39453,-0.62109 1.75,1.75 0 0 0 -0.62109,-2.39649 c -0.98422,-0.57826 -1.95355,-1.17524 -2.9043,-1.79687 a 1.75,1.75 0 0 0 -1.3164,-0.24805 z m 55.39843,2.68359 a 1.75,1.75 0 0 0 -0.57226,2.40625 c 0.55705,0.90417 1.02332,1.84184 1.35547,2.80078 a 1.75,1.75 0 0 0 2.22656,1.08204 1.75,1.75 0 0 0 1.08008,-2.22657 c -0.43183,-1.24673 -1.01552,-2.41099 -1.68164,-3.49218 a 1.75,1.75 0 0 0 -2.40821,-0.57032 z m -43.35546,4.08203 a 1.75,1.75 0 0 0 -0.98829,0.90235 1.75,1.75 0 0 0 0.8418,2.32617 c 1.0712,0.50156 2.14854,0.98812 3.23047,1.46094 a 1.75,1.75 0 0 0 2.30469,-0.90235 1.75,1.75 0 0 0 -0.90235,-2.30468 c -1.05613,-0.46155 -2.10647,-0.93597 -3.14843,-1.42383 a 1.75,1.75 0 0 0 -1.33789,-0.0586 z m 14.13281,5.29493 a 1.75,1.75 0 0 0 -2.23438,1.06445 1.75,1.75 0 0 0 0.0352,0.66602 1.75,1.75 0 0 0 -1.54297,-0.85547 1.75,1.75 0 0 0 -1.19922,2.16601 c 0.33158,1.15687 0.70001,2.30311 1.10547,3.4375 a 1.75,1.75 0 0 0 2.23633,1.0586 1.75,1.75 0 0 0 1.05859,-2.23633 c -0.23813,-0.66625 -0.43924,-1.34564 -0.65039,-2.02149 a 1.75,1.75 0 0 0 0.0215,0.0195 c 1.11462,0.39515 2.23503,0.77378 3.35937,1.13868 a 1.75,1.75 0 0 0 2.20508,-1.12305 1.75,1.75 0 0 0 -1.125,-2.20508 c -1.09502,-0.35538 -2.18494,-0.72487 -3.26953,-1.10937 z m 28.78906,3.69922 c -0.0861,0.0714 -0.188,0.14492 -0.30078,0.21875 -4.6e-4,2.9e-4 -0.001,-3e-4 -0.002,0 -0.57526,0.37173 -1.30875,0.63487 -2.12891,0.81445 a 1.75,1.75 0 0 0 -1.33594,2.08398 1.75,1.75 0 0 0 2.08399,1.33594 c 1.07659,-0.23572 2.21896,-0.60657 3.2832,-1.29492 a 1.750175,1.750175 0 0 0 0.006,-0.004 c 0.20764,-0.13538 0.41778,-0.28745 0.62695,-0.46094 a 1.75,1.75 0 0 0 0.23047,-2.46289 1.75,1.75 0 0 0 -2.46289,-0.23046 z m -15.56641,0.13671 a 1.75,1.75 0 0 0 -2.08007,1.33985 1.75,1.75 0 0 0 1.33984,2.08008 c 1.16655,0.25261 2.34155,0.48036 3.52539,0.67382 a 1.75,1.75 0 0 0 2.00977,-1.44531 1.75,1.75 0 0 0 -1.44532,-2.00976 c -1.11895,-0.18287 -2.23574,-0.39747 -3.34961,-0.63868 z m -10.41601,9.73438 a 1.75,1.75 0 0 0 -1.31641,0.24805 1.75,1.75 0 0 0 -0.50781,2.42187 c 0.66494,1.0166 1.37224,2.00508 2.11328,2.96289 a 1.75,1.75 0 0 0 2.45508,0.3125 1.75,1.75 0 0 0 0.3125,-2.45508 c -0.6867,-0.88758 -1.3389,-1.80024 -1.95117,-2.73632 a 1.75,1.75 0 0 0 -1.10547,-0.75391 z m 10.03516,10.88867 a 1.75,1.75 0 0 0 -2.47266,0.13281 1.75,1.75 0 0 0 0.13476,2.47071 c 0.88933,0.79794 1.79565,1.57319 2.71485,2.32812 a 1.75,1.75 0 0 0 2.46289,-0.24219 1.75,1.75 0 0 0 -0.24219,-2.46289 c -0.88391,-0.72594 -1.75026,-1.46623 -2.59765,-2.22656 z m 54.89257,5.5918 c -1.22247,-0.0481 -2.44337,-0.0359 -3.6582,0.0273 a 1.75,1.75 0 0 0 -1.65625,1.83789 1.75,1.75 0 0 0 1.83789,1.65625 c 1.11515,-0.0581 2.23085,-0.0671 3.33984,-0.0234 a 1.75,1.75 0 0 0 1.81641,-1.67968 1.75,1.75 0 0 0 -1.67969,-1.81836 z m -14.31054,1.60742 c -1.15829,0.25071 -2.30373,0.51724 -3.43946,0.78125 a 1.75,1.75 0 0 0 -1.30859,2.10156 1.75,1.75 0 0 0 2.10156,1.3086 c 1.13697,-0.26431 2.26446,-0.52858 3.38672,-0.77149 a 1.75,1.75 0 0 0 1.33984,-2.08008 1.75,1.75 0 0 0 -2.08007,-1.33984 z m 25.10156,0.48437 a 1.75,1.75 0 0 0 -2.23828,1.05274 1.75,1.75 0 0 0 1.05273,2.24023 c 1.04284,0.3759 2.0686,0.80529 3.07422,1.28121 a 1.75,1.75 0 0 0 2.33008,-0.83394 1.75,1.75 0 0 0 -0.83203,-2.33008 c -1.10335,-0.52222 -2.23446,-0.99482 -3.38672,-1.41016 z m -56.10352,0.11133 a 1.75,1.75 0 0 0 -0.99609,0.89453 1.75,1.75 0 0 0 0.82422,2.33399 c 1.11717,0.53436 2.27051,1.00173 3.45312,1.39063 a 1.75,1.75 0 0 0 2.20899,-1.11524 1.75,1.75 0 0 0 -1.11719,-2.20899 c -1.03396,-0.34003 -2.04752,-0.7522 -3.03516,-1.2246 a 1.75,1.75 0 0 0 -1.33789,-0.0703 z m 17.44141,2.21875 c -1.11637,0.14653 -2.23169,0.25308 -3.33984,0.30469 a 1.75,1.75 0 0 0 -1.66602,1.83011 1.75,1.75 0 0 0 1.83008,1.666 c 1.22279,-0.057 2.4339,-0.173 3.63086,-0.3301 a 1.75,1.75 0 0 0 1.50781,-1.96288 1.75,1.75 0 0 0 -1.96289,-1.50782 z m 48.58398,5.4473 a 1.75,1.75 0 0 0 -0.45507,2.4336 c 0.59996,0.8758 1.13218,1.822 1.61914,2.8125 a 1.75,1.75 0 0 0 2.34375,0.7988 1.75,1.75 0 0 0 0.79687,-2.3438 c -0.54217,-1.1027 -1.15204,-2.1964 -1.87109,-3.2461 a 1.75,1.75 0 0 0 -2.4336,-0.455 z m 5.88477,12.6289 a 1.75,1.75 0 0 0 -1.15234,2.1894 c 0.34197,1.1027 0.67424,2.2155 1.00586,3.3321 a 1.75,1.75 0 0 0 2.17578,1.1777 1.75,1.75 0 0 0 1.17773,-2.1758 c -0.33268,-1.1202 -0.66841,-2.2432 -1.01758,-3.3691 a 1.75,1.75 0 0 0 -2.18945,-1.1543 z m 4.05664,13.4004 a 1.75,1.75 0 0 0 -1.10937,2.2109 c 0.3721,1.1206 0.75948,2.2419 1.16796,3.3574 a 1.75,1.75 0 0 0 2.24414,1.041 1.75,1.75 0 0 0 1.04102,-2.2461 c -0.39381,-1.0755 -0.76767,-2.1601 -1.13086,-3.2539 a 1.75,1.75 0 0 0 -2.21289,-1.1093 z m 5.10742,13.0234 a 1.75,1.75 0 0 0 -0.69531,2.375 c 0.5772,1.0556 1.19185,2.0993 1.85547,3.1211 a 1.75,1.75 0 0 0 2.41992,0.5156 1.75,1.75 0 0 0 0.51563,-2.4219 c -0.60728,-0.935 -1.17857,-1.903 -1.72071,-2.8945 a 1.75,1.75 0 0 0 -2.375,-0.6953 z m 9.32813,10.7012 a 1.75,1.75 0 0 0 -1.1875,0.6191 1.75,1.75 0 0 0 0.21679,2.4668 c 0.94714,0.7937 1.94204,1.5317 2.98047,2.207 a 1.75,1.75 0 0 0 2.42188,-0.5136 1.75,1.75 0 0 0 -0.51367,-2.4199 c -0.91759,-0.5968 -1.79943,-1.2522 -2.64063,-1.9571 a 1.75,1.75 0 0 0 -1.27734,-0.4023 z m 12.99609,6.1816 a 1.75,1.75 0 0 0 -2.10937,1.2969 1.75,1.75 0 0 0 1.29687,2.1074 c 1.15632,0.2754 2.31559,0.5294 3.47461,0.7656 a 1.75,1.75 0 0 0 2.06445,-1.3652 1.75,1.75 0 0 0 -1.36523,-2.0644 c -1.12726,-0.2298 -2.24782,-0.475 -3.36133,-0.7403 z m 13.63477,2.543 a 1.75,1.75 0 0 0 -2.00977,1.4453 1.75,1.75 0 0 0 1.44727,2.0078 c 1.15725,0.1882 2.30767,0.3698 3.44726,0.5606 a 1.75,1.75 0 0 0 2.01367,-1.4375 1.75,1.75 0 0 0 -1.43554,-2.0137 c -1.16173,-0.1945 -2.31709,-0.3762 -3.46289,-0.5625 z m 13.89257,2.6308 a 1.75,1.75 0 0 0 -2.12109,1.2754 1.75,1.75 0 0 0 1.27539,2.1211 c 1.10357,0.2755 2.1962,0.5781 3.27735,0.9121 a 1.75,1.75 0 0 0 2.18945,-1.1562 1.75,1.75 0 0 0 -1.15625,-2.1875 c -1.1482,-0.3548 -2.30459,-0.6753 -3.46485,-0.9649 z m 12.125,5.1973 a 1.75,1.75 0 0 0 -1.0957,0.7715 1.75,1.75 0 0 0 0.54102,2.416 c 0.92709,0.5877 1.81767,1.2287 2.66015,1.9219 a 1.75,1.75 0 0 0 2.46289,-0.2402 1.75,1.75 0 0 0 -0.24023,-2.4629 c -0.95914,-0.7893 -1.96645,-1.5144 -3.00977,-2.1758 a 1.75,1.75 0 0 0 -1.31836,-0.2305 z m 9.04297,10.25 a 1.75,1.75 0 0 0 -0.66015,2.3848 c 0.5429,0.959 1.03474,1.9513 1.47851,2.9687 a 1.75,1.75 0 0 0 2.30274,0.9043 1.75,1.75 0 0 0 0.90429,-2.3027 c -0.48901,-1.1212 -1.034,-2.2234 -1.64062,-3.2949 a 1.75,1.75 0 0 0 -2.38477,-0.6602 z m 5.08203,12.9785 a 1.75,1.75 0 0 0 -1.39453,2.0449 c 0.20223,1.0684 0.37237,2.1474 0.51953,3.2364 a 1.75,1.75 0 0 0 1.96875,1.5 1.75,1.75 0 0 0 1.5,-1.9688 c -0.15385,-1.1384 -0.33298,-2.2796 -0.54882,-3.4199 a 1.75,1.75 0 0 0 -2.04493,-1.3926 z"
       id="path122-6-9" /><g
       id="g3"
       transform="matrix(-0.06782665,0.01906405,0.01906405,0.06782665,111.52309,823.56685)"
       style="fill:none;stroke:#ffffff"><path
         style="fill:#ffffff;stroke:none;stroke-linecap:round;stroke-linejoin:round"
         d="m 533.93555,19.113281 c -9.76191,-0.758275 -19.76564,0.756417 -29.16797,4.746094 L 31.697266,224.59766 c -48.037674,20.38375 -52.851664,90.0002 -8.076172,116.80078 l 39.984375,23.93359 A 25.00005,25.00005 0 0 0 97.896484,356.7207 25.00005,25.00005 0 0 0 89.285156,322.42969 L 49.300781,298.49609 C 36.99193,291.12858 38.020932,276.22852 51.226562,270.625 L 524.29883,69.888672 c 5.13264,-2.177925 10.81369,-0.833017 14.42383,3.416015 3.61013,4.249033 4.02131,10.071686 1.04296,14.785157 L 338.40234,406.76367 c -16.66352,26.37137 -50.63783,34.4665 -77.40429,18.44531 l -4.64258,-2.77929 a 25.00005,25.00005 0 0 0 -34.29102,8.61133 25.00005,25.00005 0 0 0 8.61133,34.29101 l 4.64453,2.7793 c 49.58566,29.67972 114.47995,14.21505 145.34961,-34.63867 L 582.0332,114.79883 C 596.58239,91.773576 594.46164,61.686155 576.82617,40.929687 565.804,27.956895 550.2054,20.377074 533.93555,19.113281 Z"
         id="path2"
         transform="translate(8.435652,-18.881016)" /><path
         style="fill:#ffffff;stroke:none;stroke-linecap:round;stroke-linejoin:round"
         d="m 653.4707,16.705078 a 25.00005,25.00005 0 0 0 -11.89843,5.087891 L 430.10352,187.93164 c -30.34417,23.83955 -48.0879,60.34093 -48.0879,98.92969 v 62.02344 a 25.00005,25.00005 0 0 0 25,25 25.00005,25.00005 0 0 0 25.00196,-25 v -62.02344 c 0,-23.28369 10.66554,-45.22702 28.97461,-59.61133 L 672.46094,61.111328 a 25.00005,25.00005 0 0 0 4.21484,-35.103516 25.00005,25.00005 0 0 0 -23.20508,-9.302734 z"
         id="path3"
         transform="translate(-257.01656,126.11499)" /></g><path
       style="fill:#ffffff;stroke-linecap:round;stroke-linejoin:round;stroke-dasharray:3.5, 10.5;paint-order:fill markers stroke"
       d="m 384.93164,702.64648 a 1.75,1.75 0 0 0 -1.30664,0.29688 1.75,1.75 0 0 0 -0.41797,2.43945 c 0.45098,0.63746 0.89386,1.27163 1.32227,1.91016 a 1.75,1.75 0 0 0 2.42773,0.47851 1.75,1.75 0 0 0 0.47852,-2.42773 c -0.45117,-0.67245 -0.91032,-1.33112 -1.3711,-1.98242 a 1.75,1.75 0 0 0 -1.13281,-0.71485 z m 5.61914,11.13282 a 1.75,1.75 0 0 0 -0.75195,2.35742 c 0.52234,1.01268 1.01941,2.03591 1.49023,3.07031 a 1.75,1.75 0 0 0 2.31836,0.86719 1.75,1.75 0 0 0 0.86719,-2.31641 c -0.49577,-1.08922 -1.01917,-2.16562 -1.56641,-3.22656 a 1.75,1.75 0 0 0 -2.35742,-0.75195 z m 5.45313,12.87109 a 1.75,1.75 0 0 0 -1.23438,2.14648 c 0.29354,1.08901 0.55129,2.18723 0.77149,3.29297 a 1.75,1.75 0 0 0 2.05859,1.375 1.75,1.75 0 0 0 1.375,-2.05859 c -0.23549,-1.18254 -0.51052,-2.35769 -0.82422,-3.52148 a 1.75,1.75 0 0 0 -2.14648,-1.23438 z m 2.26171,13.78125 a 1.75,1.75 0 0 0 -1.76953,1.73047 c -0.0129,1.12312 -0.0683,2.24533 -0.16406,3.36523 a 1.75,1.75 0 0 0 1.5957,1.89258 1.75,1.75 0 0 0 1.89258,-1.59375 c 0.10299,-1.20491 0.16188,-2.41496 0.17578,-3.625 a 1.75,1.75 0 0 0 -1.73047,-1.76953 z m -1.67187,13.85938 a 1.75,1.75 0 0 0 -2.17969,1.17382 c -0.32372,1.08006 -0.68448,2.15121 -1.07812,3.21094 a 1.75,1.75 0 0 0 1.03125,2.25 1.75,1.75 0 0 0 2.25,-1.03125 c 0.4188,-1.12746 0.80421,-2.26886 1.15039,-3.42383 a 1.75,1.75 0 0 0 -1.17383,-2.17968 z m -6.5332,12.81054 a 1.75,1.75 0 0 0 -1.05274,0.82813 c -0.55796,0.99304 -1.13897,1.97491 -1.74219,2.94531 a 1.75,1.75 0 0 0 0.5625,2.41016 1.75,1.75 0 0 0 2.41016,-0.5625 c 0.62859,-1.01123 1.23727,-2.03697 1.82227,-3.07813 a 1.75,1.75 0 0 0 -0.66993,-2.38281 1.75,1.75 0 0 0 -1.33007,-0.16016 z m -6.25,11.91602 a 1.75,1.75 0 0 0 -2.45313,0.31836 c -0.70259,0.91139 -1.41943,1.81397 -2.14648,2.70703 a 1.75,1.75 0 0 0 0.2539,2.46094 1.75,1.75 0 0 0 2.46094,-0.25196 c 0.74609,-0.91644 1.48113,-1.84272 2.20313,-2.77929 a 1.75,1.75 0 0 0 -0.31836,-2.45508 z m -8.92774,10.77929 a 1.75,1.75 0 0 0 -2.47265,0.12305 c -0.77653,0.85819 -1.56163,1.71132 -2.35157,2.5625 a 1.75,1.75 0 0 0 0.0937,2.47266 1.75,1.75 0 0 0 2.47266,-0.0918 c 0.79729,-0.8591 1.59184,-1.72372 2.38086,-2.5957 a 1.75,1.75 0 0 0 -0.12305,-2.47071 z m -10.79101,9.76758 a 1.75,1.75 0 0 0 -1.22266,0.54688 l -1.10937,1.17187 a 1.750175,1.750175 0 0 0 -0.004,0.004 l -1.29297,1.37305 a 1.75,1.75 0 0 0 0.0762,2.47265 1.75,1.75 0 0 0 2.47266,-0.0742 l 1.29101,-1.37109 1.10938,-1.16992 a 1.75,1.75 0 0 0 -0.0684,-2.47461 1.75,1.75 0 0 0 -1.25195,-0.47852 z m -9.52735,10.33985 a 1.75,1.75 0 0 0 -1.19531,0.60742 c -0.77124,0.90105 -1.52672,1.81396 -2.26758,2.74023 a 1.75,1.75 0 0 0 0.27344,2.46094 1.75,1.75 0 0 0 2.45898,-0.27344 c 0.71656,-0.89588 1.4493,-1.78076 2.19532,-2.65234 a 1.75,1.75 0 0 0 -0.19141,-2.4668 1.75,1.75 0 0 0 -1.27344,-0.41601 z m -7.16406,11.57226 a 1.75,1.75 0 0 0 -2.36914,0.7168 c -0.57561,1.07508 -1.10798,2.18645 -1.57031,3.33984 a 1.75,1.75 0 0 0 0.97461,2.27539 1.75,1.75 0 0 0 2.27539,-0.97265 c 0.40587,-1.01255 0.88068,-2.01057 1.40625,-2.99219 a 1.75,1.75 0 0 0 -0.7168,-2.36719 z m -3.99414,13.24219 a 1.75,1.75 0 0 0 -1.6582,1.83594 c 0.0617,1.22712 0.18766,2.4518 0.38281,3.66797 a 1.75,1.75 0 0 0 2.00586,1.45117 1.75,1.75 0 0 0 1.44922,-2.00586 c -0.17453,-1.08767 -0.28826,-2.1859 -0.34375,-3.28906 a 1.75,1.75 0 0 0 -1.83594,-1.66016 z m 4.27148,13.49609 a 1.75,1.75 0 0 0 -1.33593,0.10157 1.75,1.75 0 0 0 -0.76953,2.35156 c 0.55104,1.08759 1.14927,2.14792 1.7871,3.17969 a 1.75,1.75 0 0 0 2.40821,0.56836 1.75,1.75 0 0 0 0.56836,-2.40821 c -0.58907,-0.95287 -1.13903,-1.92801 -1.64258,-2.92187 a 1.75,1.75 0 0 0 -1.01563,-0.8711 z m 6.35547,11.75196 a 1.75,1.75 0 0 0 -0.14453,2.4707 c 0.79149,0.89034 1.59863,1.76118 2.41602,2.61719 a 1.75,1.75 0 0 0 2.47461,0.0566 1.75,1.75 0 0 0 0.0566,-2.47461 c -0.79397,-0.83149 -1.57327,-1.67186 -2.33203,-2.52539 a 1.75,1.75 0 0 0 -2.47071,-0.14453 z m 12.20703,10.01562 a 1.75,1.75 0 0 0 -2.47461,0.041 1.75,1.75 0 0 0 0.041,2.47461 c 0.84045,0.8133 1.67777,1.62027 2.50391,2.42968 a 1.75,1.75 0 0 0 2.47461,-0.0254 1.75,1.75 0 0 0 -0.0254,-2.47461 c -0.84057,-0.82355 -1.68323,-1.636 -2.51954,-2.44531 z m 8.69532,9.4961 a 1.75,1.75 0 0 0 -1.26563,0.4375 1.75,1.75 0 0 0 -0.14844,2.4707 c 0.75771,0.85514 1.4955,1.72292 2.20704,2.60742 a 1.75,1.75 0 0 0 2.46093,0.26758 1.75,1.75 0 0 0 0.26563,-2.46094 c -0.751,-0.93355 -1.52481,-1.84514 -2.31446,-2.73633 a 1.75,1.75 0 0 0 -1.20507,-0.58593 z m 8.46679,11.50781 a 1.75,1.75 0 0 0 -1.33593,0.10156 1.75,1.75 0 0 0 -0.77149,2.35156 c 0.50276,0.99423 0.95918,2.00904 1.36328,3.04102 a 1.75,1.75 0 0 0 2.26758,0.99219 1.75,1.75 0 0 0 0.99219,-2.26758 c -0.44668,-1.14071 -0.94988,-2.25781 -1.5,-3.34571 a 1.75,1.75 0 0 0 -1.01563,-0.87304 z m 3.04688,13.3164 a 1.75,1.75 0 0 0 -1.63672,1.85743 c 0.0694,1.10391 0.0821,2.2124 0.041,3.32226 a 1.75,1.75 0 0 0 1.68359,1.81445 1.75,1.75 0 0 0 1.81445,-1.68359 c 0.0452,-1.22177 0.0321,-2.44902 -0.0449,-3.67383 a 1.75,1.75 0 0 0 -1.85742,-1.63672 z m -0.52735,13.9668 a 1.75,1.75 0 0 0 -1.95898,1.51367 c -0.14614,1.13575 -0.31168,2.2686 -0.49805,3.40039 a 1.75,1.75 0 0 0 1.44141,2.01172 1.75,1.75 0 0 0 2.01172,-1.44336 c 0.19273,-1.17045 0.36594,-2.345 0.51758,-3.52343 a 1.75,1.75 0 0 0 -1.51368,-1.95899 z m -31.18554,6.95703 a 1.75,1.75 0 0 0 -1.85547,1.63672 1.75,1.75 0 0 0 1.63867,1.85547 c 0.87566,0.0545 1.79413,0.33782 2.68945,0.77344 a 1.75,1.75 0 0 0 2.33985,-0.8086 1.75,1.75 0 0 0 -0.8086,-2.33789 c -1.19842,-0.58309 -2.54498,-1.02831 -4.0039,-1.11914 z m -9.65235,4.18164 a 1.75,1.75 0 0 0 -1.0957,0.76953 c -0.77392,1.21498 -1.23354,2.55215 -1.47461,3.88086 a 1.75,1.75 0 0 0 1.41016,2.03516 1.75,1.75 0 0 0 2.0332,-1.41016 c 0.17476,-0.96324 0.50088,-1.87097 0.98242,-2.62695 a 1.75,1.75 0 0 0 -0.53515,-2.41602 1.75,1.75 0 0 0 -1.32032,-0.23242 z m 38.31641,2.62305 a 1.75,1.75 0 0 0 -2.16602,1.19727 c -0.31635,1.09773 -0.65576,2.18283 -1.02343,3.2539 a 1.75,1.75 0 0 0 1.08789,2.22461 1.75,1.75 0 0 0 2.22265,-1.08789 c 0.38992,-1.13585 0.74641,-2.27763 1.07618,-3.42187 a 1.75,1.75 0 0 0 -1.19727,-2.16602 z m -18.6875,1.39453 a 1.75,1.75 0 0 0 -0.23828,2.46289 c 0.71523,0.86909 1.40316,1.76756 2.07031,2.6875 a 1.75,1.75 0 0 0 2.44336,0.39063 1.75,1.75 0 0 0 0.38867,-2.44532 c -0.70264,-0.96887 -1.43366,-1.92286 -2.20117,-2.85546 a 1.75,1.75 0 0 0 -2.46289,-0.24024 z m -19.75391,9.60156 a 1.75,1.75 0 0 0 -1.0957,2.21875 c 0.39098,1.1546 0.83174,2.29093 1.32031,3.4043 a 1.75,1.75 0 0 0 2.30664,0.89844 1.75,1.75 0 0 0 0.89844,-2.30469 c -0.449,-1.02318 -0.85355,-2.06372 -1.21094,-3.11914 a 1.75,1.75 0 0 0 -2.21875,-1.09766 z m 27.75782,1.86328 a 1.75,1.75 0 0 0 -0.66016,2.38477 c 0.56486,0.99587 1.11474,2.00857 1.65625,3.0293 a 1.75,1.75 0 0 0 2.36523,0.72461 1.75,1.75 0 0 0 0.33399,-0.27344 1.75,1.75 0 0 0 0.82031,-0.1543 c 0.68692,-1.00578 1.32868,-2.03937 1.92578,-3.09765 a 1.75,1.75 0 0 0 -0.66406,-2.38477 1.75,1.75 0 0 0 -2.38477,0.66406 c -0.1456,0.25806 -0.31754,0.49929 -0.46875,0.75391 -0.1818,-0.32884 -0.35315,-0.66052 -0.53906,-0.98828 a 1.75,1.75 0 0 0 -2.38476,-0.65821 z m -3.85157,10.51368 a 1.75,1.75 0 0 0 -1.31054,0.26953 c -0.8786,0.5951 -1.8038,1.10751 -2.76172,1.50781 a 1.75,1.75 0 0 0 -0.94141,2.28906 1.75,1.75 0 0 0 2.29102,0.93946 c 1.19518,-0.49946 2.32243,-1.12496 3.375,-1.83789 a 1.75,1.75 0 0 0 0.46679,-2.42969 1.75,1.75 0 0 0 -1.11914,-0.73828 z m -15.26953,0.0156 a 1.75,1.75 0 0 0 -2.4707,0.12305 1.75,1.75 0 0 0 0.12109,2.47265 c 0.97406,0.88178 2.07108,1.65009 3.27539,2.2461 a 1.75,1.75 0 0 0 2.34375,-0.79297 1.75,1.75 0 0 0 -0.79101,-2.34375 c -0.88783,-0.43938 -1.72331,-1.02142 -2.47852,-1.70508 z m 25.53321,1.91016 a 1.75,1.75 0 0 0 -0.89063,2.31054 c 0.46763,1.05295 0.92145,2.11098 1.35938,3.17383 a 1.75,1.75 0 0 0 2.28515,0.95117 1.75,1.75 0 0 0 0.95117,-2.28515 c -0.45096,-1.0945 -0.91706,-2.18222 -1.39648,-3.26172 a 1.75,1.75 0 0 0 -2.30859,-0.88867 z m 4.86328,13.09961 a 1.75,1.75 0 0 0 -1.50782,1.96289 c 0.14546,1.11254 0.24825,2.23323 0.31446,3.35937 a 1.75,1.75 0 0 0 1.84961,1.64453 1.75,1.75 0 0 0 1.64453,-1.84961 c -0.0707,-1.20307 -0.18281,-2.40631 -0.33985,-3.60742 a 1.75,1.75 0 0 0 -1.96093,-1.50976 z m 0.48047,13.96484 a 1.75,1.75 0 0 0 -1.89649,1.58984 c -0.0995,1.13722 -0.2229,2.27632 -0.36523,3.41602 a 1.75,1.75 0 0 0 1.51953,1.95313 1.75,1.75 0 0 0 1.95312,-1.51954 c 0.14681,-1.17556 0.27507,-2.3577 0.37891,-3.54492 a 1.75,1.75 0 0 0 -1.58984,-1.89453 z m -1.90039,13.86328 a 1.75,1.75 0 0 0 -2.06055,1.36914 c -0.22865,1.13225 -0.46981,2.26105 -0.7207,3.38865 a 1.75,1.75 0 0 0 1.32812,2.0899 1.75,1.75 0 0 0 2.08789,-1.3282 c 0.25585,-1.1499 0.50116,-2.3041 0.73438,-3.4589 a 1.75,1.75 0 0 0 -1.36914,-2.06059 z m -3.1211,13.64449 a 1.75,1.75 0 0 0 -2.13867,1.2442 c -0.2973,1.1225 -0.59954,2.2432 -0.9082,3.3613 a 1.75,1.75 0 0 0 1.2207,2.1524 1.75,1.75 0 0 0 2.15234,-1.2207 c 0.31222,-1.1311 0.61787,-2.2635 0.91797,-3.3965 a 1.75,1.75 0 0 0 -1.24414,-2.1407 z m -3.76172,13.4864 a 1.75,1.75 0 0 0 -2.17773,1.1758 l -0.44531,1.496 -0.55664,1.8536 a 1.75,1.75 0 0 0 1.17187,2.1797 1.75,1.75 0 0 0 2.17969,-1.1719 l 0.55859,-1.8535 a 1.750175,1.750175 0 0 0 0,-0.01 l 0.44727,-1.498 a 1.75,1.75 0 0 0 -1.17774,-2.1758 z m -4.05859,13.3984 a 1.75,1.75 0 0 0 -2.1875,1.1563 l -1.03125,3.3457 a 1.75,1.75 0 0 0 1.1582,2.1875 1.75,1.75 0 0 0 2.1875,-1.1582 l 1.0293,-3.3438 a 1.75,1.75 0 0 0 -1.15625,-2.1875 z m -4.10156,13.3848 a 1.75,1.75 0 0 0 -2.17774,1.1738 c -0.33502,1.1178 -0.67063,2.2398 -1,3.3672 a 1.75,1.75 0 0 0 1.1875,2.1699 1.75,1.75 0 0 0 2.17188,-1.1875 c 0.32496,-1.1123 0.65731,-2.2264 0.99218,-3.3437 a 1.75,1.75 0 0 0 -1.17382,-2.1797 z m -3.90235,13.4453 a 1.75,1.75 0 0 0 -2.14648,1.2324 c -0.3064,1.1319 -0.60684,2.2653 -0.90039,3.4024 a 1.75,1.75 0 0 0 1.25586,2.1328 1.75,1.75 0 0 0 2.13281,-1.2578 c 0.28973,-1.1223 0.58736,-2.243 0.89062,-3.3633 a 1.75,1.75 0 0 0 -1.23242,-2.1465 z m -3.41601,13.5762 a 1.75,1.75 0 0 0 -2.07813,1.3418 c -0.24744,1.1517 -0.48325,2.3067 -0.70703,3.4648 a 1.75,1.75 0 0 0 1.38477,2.0508 1.75,1.75 0 0 0 2.05078,-1.3867 c 0.21892,-1.1329 0.4507,-2.2631 0.69336,-3.3926 a 1.75,1.75 0 0 0 -1.34375,-2.0781 z m -2.4961,13.7714 a 1.75,1.75 0 0 0 -1.9414,1.5352 c -0.13804,1.1807 -0.25411,2.3625 -0.34961,3.5449 a 1.75,1.75 0 0 0 1.60351,1.8848 1.75,1.75 0 0 0 1.88477,-1.6035 c 0.0923,-1.1433 0.20499,-2.2831 0.33789,-3.4199 a 1.75,1.75 0 0 0 -1.53516,-1.9415 z"
       id="path123-1-1" /><path
       style="fill:#ffffff;stroke-linecap:round"
       d="m 371.21094,608.74609 c -0.65882,0.11424 -1.29934,0.38696 -1.86328,0.83789 l -3.47071,2.77539 c -2.09702,1.67682 -3.53576,4.03945 -4.0625,6.67188 l -0.41406,2.06641 c -0.29984,1.4985 -1.37302,2.71767 -2.82422,3.20117 l -4.08203,1.35937 c -2.4572,0.81868 -4.68243,2.21419 -6.48828,4.07032 l -2.07031,2.12695 0.16211,-0.14649 c -1.71133,1.37465 -2.82701,3.35713 -3.11329,5.53321 l -0.0137,0.10937 -0.002,0.10938 c -0.0236,2.82361 1.56497,5.42453 4.08789,6.69336 l 0.74023,0.37109 c 0.95898,0.48229 1.37483,1.57793 0.97852,2.57422 l -0.98828,2.48047 c -0.93963,2.36212 -1.42187,4.8818 -1.42188,7.42383 v 0.14257 c 0,2.54305 0.48675,5.06271 1.43164,7.42383 l 0.97266,2.4336 c 0.57769,1.44353 0.36115,3.07636 -0.57226,4.32031 l -1.15821,1.54492 0.0684,-0.0859 c -1.74266,2.04659 -2.00718,4.98672 -0.65625,7.31055 l 0.0293,0.0469 0.0293,0.0469 c 1.61106,2.41545 5.141,2.72659 7.15039,0.63086 l 0.29101,-0.30274 -0.11523,0.10938 c 1.14459,-0.99791 2.15968,-2.13524 3.01953,-3.38672 l 0.0703,-0.10351 0.0547,-0.10938 c 0.7302,-1.45979 1.76401,-2.74637 3.0332,-3.77344 a 1.788695,1.788695 0 0 0 0.26563,-2.51562 1.788695,1.788695 0 0 0 -2.51563,-0.26563 c -1.66604,1.34822 -3.02374,3.03658 -3.98242,4.95313 l 0.125,-0.21289 c -0.6896,1.00368 -1.50189,1.91641 -2.41992,2.71679 l -0.0606,0.0527 -0.34766,0.36133 c -0.46679,0.48685 -1.15387,0.42021 -1.54687,-0.11133 -0.55607,-1.01249 -0.45175,-2.24513 0.30078,-3.12891 l 0.0352,-0.041 1.1914,-1.58985 c 1.67976,-2.23859 2.07302,-5.19859 1.03321,-7.79687 l -0.97461,-2.43164 c -0.77576,-1.93847 -1.17383,-4.00795 -1.17383,-6.09571 v -0.14257 c 0,-2.08923 0.39568,-4.16012 1.16797,-6.10157 l 0.98828,-2.48047 c 1.0701,-2.69012 -0.1088,-5.79099 -2.69531,-7.09179 l -0.74024,-0.3711 c -1.28278,-0.64513 -2.06668,-1.94657 -2.09179,-3.375 0.19275,-1.21122 0.80632,-2.31536 1.76562,-3.08593 l 0.0859,-0.0684 2.14648,-2.20703 c 1.40687,-1.44604 3.14009,-2.53398 5.05469,-3.17188 l 4.08008,-1.35937 c 2.66313,-0.88729 4.65243,-3.1385 5.20312,-5.89063 l 0.41407,-2.06836 c 0.36166,-1.80747 1.34875,-3.42838 2.78906,-4.58008 l 3.46875,-2.77343 c 0.40109,-0.32072 0.87105,-0.18154 1.0332,0.30468 l 0.68164,2.03907 a 1.788695,1.788695 0 0 0 2.26172,1.13086 1.788695,1.788695 0 0 0 1.13086,-2.26172 l -0.67969,-2.04102 c -0.68535,-2.05505 -2.82041,-3.14741 -4.79687,-2.80469 z m 9.39258,9.59961 c -2.74635,-0.4575 -5.56005,0.27504 -7.73438,2.01367 l -6.15234,4.91797 a 1.788695,1.788695 0 0 0 -0.2793,2.51368 1.788695,1.788695 0 0 0 2.51367,0.28125 l 6.15235,-4.91993 c 1.38199,-1.10506 3.16611,-1.5682 4.9121,-1.27734 l 3.67579,0.61133 c 0.51046,0.085 0.71484,0.5282 0.44921,0.9707 l -1.68554,2.80664 c -0.8881,1.47946 -2.39417,2.47858 -4.10352,2.72266 l -5.43945,0.77734 c -2.85634,0.40786 -5.19255,2.51372 -5.89258,5.3125 l -0.0527,0.21289 0.0293,-0.10547 c -0.87008,2.74908 -0.35892,5.75352 1.3711,8.06055 l 0.0332,0.0449 0.0371,0.041 c 1.59843,1.87917 3.71927,3.60577 6.96094,6.0332 l 0.0234,0.0176 0.0254,0.0176 c 1.89156,1.31905 3.70656,2.74602 5.4375,4.26953 4.42575,4.18209 7.42439,9.81707 8.21289,16.1543 l 0.008,0.0664 0.0137,0.0644 c 0.39626,1.98467 0.20145,4.0369 -0.54297,5.91797 -0.84045,1.68532 -2.41277,3.52159 -3.91015,5.70313 l 0.0605,-0.082 c -1.69345,2.19095 -2.65989,4.85804 -2.76172,7.625 l -0.002,0.0508 0.002,0.0508 c 0.001,0.0489 8.8e-4,0.11038 0.004,0.18359 l 0.004,0.0547 0.004,0.0527 c 0.15103,1.48091 -0.485,2.92318 -1.67773,3.81445 l -5.04883,3.23437 c -1.60096,1.02542 -3.45615,1.55674 -5.35352,1.60743 -0.77127,-0.25587 -1.34128,-0.89734 -1.41211,-1.71875 l -0.004,-0.0664 -0.0117,-0.0644 c -0.17188,-1.0682 0.27088,-2.13194 1.15039,-2.76368 l 0.11914,-0.084 0.4082,-0.41016 c 1.98584,-1.98488 2.94605,-4.77869 2.59766,-7.56445 l -0.90234,-7.20898 c -0.18791,-1.50258 0.48779,-2.97288 1.75195,-3.8086 l 1.70117,-1.12304 a 1.788695,1.788695 0 0 0 0.50586,-2.47852 1.788695,1.788695 0 0 0 -2.47851,-0.50586 l -1.70118,1.12305 c -2.39182,1.58119 -3.68389,4.39153 -3.32812,7.23633 l 0.90039,7.20898 c 0.21168,1.69267 -0.36716,3.38336 -1.57422,4.58984 l -0.30859,0.30664 0.22265,-0.1875 c -1.96046,1.40816 -2.95468,3.80816 -2.58984,6.19141 0.24145,2.36292 1.94814,4.33849 4.26367,4.89453 l 0.20508,0.0508 h 0.21094 c 2.67821,0 5.30157,-0.7685 7.55664,-2.21289 l 5.19336,-3.32617 0.0508,-0.0371 c 2.207,-1.63879 3.39214,-4.32609 3.11328,-7.06055 l 0.004,0.0527 v 0.0488 c 1.7e-4,-0.005 0.002,-0.009 0.002,-0.0137 l 0.002,0.0195 c -1.9e-4,-0.005 1.9e-4,-0.0158 0,-0.0215 0.0776,-2.01516 0.77793,-3.95648 2.01172,-5.55273 l 0.0312,-0.0391 0.0273,-0.041 c 1.35105,-1.96833 3.06642,-3.88035 4.20899,-6.20703 l 0.0293,-0.0586 0.0254,-0.0605 c 1.02059,-2.53165 1.2768,-5.30478 0.75,-7.98242 -0.91265,-7.15539 -4.31114,-13.53288 -9.3086,-18.2461 l -0.0215,-0.0195 -0.0234,-0.0215 c -1.84026,-1.62159 -3.76924,-3.13603 -5.78125,-4.53907 l 0.0488,0.0352 c -3.15893,-2.36548 -5.05235,-3.95344 -6.33008,-5.44531 -1.0167,-1.38109 -1.32264,-3.15646 -0.80469,-4.79297 l 0.0156,-0.0508 0.0664,-0.26758 c 0.34951,-1.39736 1.50022,-2.43484 2.92774,-2.63867 l 5.43945,-0.77735 c 2.77279,-0.39592 5.22271,-2.02076 6.66406,-4.42187 l 1.68555,-2.8086 c 1.50233,-2.50267 -0.0487,-5.86023 -2.92773,-6.33984 z m -22.14844,60.24219 a 1.788695,1.788695 0 0 0 -1.30078,2.16797 l 0.91992,3.68359 c 0.38653,1.54541 -0.0642,3.1741 -1.19141,4.30078 l -0.30664,0.30664 c -2.02719,2.02622 -2.73679,5.03313 -1.83008,7.75196 l 0.0527,0.16211 0.082,0.14648 c 1.21324,2.16583 3.69426,3.32086 6.13281,2.85547 a 1.788695,1.788695 0 0 0 1.42188,-2.0918 1.788695,1.788695 0 0 0 -2.0918,-1.42187 c -0.87937,0.16782 -1.72138,-0.23977 -2.21289,-0.9707 -0.38894,-1.38786 -0.053,-2.87527 0.97461,-3.90235 l 0.30664,-0.30664 c 2.01224,-2.01128 2.8231,-4.93743 2.13281,-7.69726 l -0.91992,-3.6836 a 1.788695,1.788695 0 0 0 -2.16992,-1.30078 z m 33.62695,3.05078 a 1.788695,1.788695 0 0 0 -0.79883,2.40039 l 0.22071,0.44141 c 0.15891,0.31767 0.0169,0.54687 -0.33985,0.54687 h -0.0703 a 1.788695,1.788695 0 0 0 -1.78906,1.78711 1.788695,1.788695 0 0 0 1.78906,1.78907 h 0.0703 c 2.86541,0 4.82115,-3.1597 3.53906,-5.72266 l -0.2207,-0.44141 a 1.788695,1.788695 0 0 0 -2.40039,-0.80078 z"
       id="path49" /></g></svg>
